{
  "source": "C:\\Users\\Peter\\Desktop\\stuff\\MIUN\\quantitative_research\\video_compression\\videos\\BVI-HD\\BVI-HD_CDVL_videos\\ORIG\\ParkPlay_1920x1080_50fps.mp4",
  "output": "C:\\Users\\Peter\\Desktop\\stuff\\MIUN\\quantitative_research\\video_compression\\compressed_videos\\BVI-HD\\hevc\\8\\ParkPlay_1920x1080_50fps_hevc.mp4",
  "codec": "hevc",
  "ok": "Input #0, mov,mp4,m4a,3gp,3g2,mj2, from 'C:\\Users\\Peter\\Desktop\\stuff\\MIUN\\quantitative_research\\video_compression\\videos\\BVI-HD\\BVI-HD_CDVL_videos\\ORIG\\ParkPlay_1920x1080_50fps.mp4':\n  Metadata:\n    major_brand     : isom\n    minor_version   : 512\n    compatible_brands: isomiso2avc1mp41\n    encoder         : Lavf54.28.101\n  Duration: 00:00:05.00, start: 0.000000, bitrate: 620563 kb/s\n  Stream #0:0[0x1](und): Video: h264 (High 4:4:4 Predictive) (avc1 / 0x31637661), yuv420p(progressive), 1920x1080, 620558 kb/s, 50 fps, 50 tbr, 50 tbn (default)\n    Metadata:\n      handler_name    : VideoHandler\n      vendor_id       : [0][0][0][0]\n[out#0/mp4 @ 00000220a7ab7d80] Codec AVOption b:a (set bitrate (in bits/s)) has not been used for any stream. The most likely reason is either wrong type (e.g. a video option with no video streams) or that it is a private option of some decoder which was not actually used for any stream.\nStream mapping:\n  Stream #0:0 -> #0:0 (h264 (native) -> hevc (libx265))\nPress [q] to stop, [?] for help\n[libx265 @ 00000220a85b0b40] Unknown option: \"aq-mode.\nx265 [info]: HEVC encoder version 4.1+190-8f11c33ac\nx265 [info]: build info [Windows][GCC 15.1.0][64 bit] 10bit\nx265 [info]: using cpu capabilities: MMX2 SSE2Fast LZCNT SSSE3 SSE4.2 AVX FMA3 BMI2 AVX2\nx265 [info]: Main 10 profile, Level-4.1 (Main tier)\nx265 [info]: Thread pool created using 12 threads\nx265 [info]: Slices                              : 1\nx265 [info]: frame threads / pool features       : 3 / wpp(17 rows)\nx265 [info]: Coding QT: max CU size, min CU size : 64 / 8\nx265 [info]: Residual QT: max TU size, max depth : 32 / 1 inter / 1 intra\nx265 [info]: ME / range / subpel / merge         : star / 57 / 3 / 3\nx265 [info]: Keyframe min / max / scenecut / bias  : 25 / 250 / 40 / 5.00 \nx265 [info]: Lookahead / bframes / badapt        : 25 / 4 / 2\nx265 [info]: b-pyramid / weightp / weightb       : 1 / 1 / 0\nx265 [info]: References / ref-limit  cu / depth  : 4 / on / on\nx265 [info]: AQ: mode / str / qg-size / cu-tree  : 2 / 1.0 / 32 / 1\nx265 [info]: Rate Control / qCompress            : ABR-8000 kbps / 0.60\nx265 [info]: VBV/HRD buffer / max-rate / init    : 8000 / 8000 / 0.750\nx265 [info]: tools: rect limit-modes rd=4 psy-rd=2.00 rdoq=2 psy-rdoq=1.00\nx265 [info]: tools: rskip mode=1 signhide tmvp strong-intra-smoothing lslices=4\nx265 [info]: tools: deblock sao dhdr10-info\nOutput #0, mp4, to 'C:\\Users\\Peter\\Desktop\\stuff\\MIUN\\quantitative_research\\video_compression\\compressed_videos\\BVI-HD\\hevc\\8\\ParkPlay_1920x1080_50fps_hevc.mp4':\n  Metadata:\n    major_brand     : isom\n    minor_version   : 512\n    compatible_brands: isomiso2avc1mp41\n    encoder         : Lavf62.3.100\n  Stream #0:0(und): Video: hevc (hev1 / 0x31766568), yuv420p10le(tv, progressive), 1920x1080, q=2-31, 8000 kb/s, 50 fps, 12800 tbn (default)\n    Metadata:\n      encoder         : Lavc62.11.100 libx265\n      handler_name    : VideoHandler\n      vendor_id       : [0][0][0][0]\n    Side data:\n      cpb: bitrate max/min/avg: 8000000/0/8000000 buffer size: 8000000 vbv_delay: N/A\nframe=    0 fps=0.0 q=0.0 size=       0KiB time=N/A bitrate=N/A speed=N/A elapsed=0:00:01.06    \nframe=    0 fps=0.0 q=0.0 size=       0KiB time=N/A bitrate=N/A speed=N/A elapsed=0:00:01.61    \nframe=    0 fps=0.0 q=0.0 size=       0KiB time=N/A bitrate=N/A speed=N/A elapsed=0:00:02.13    \nframe=    0 fps=0.0 q=0.0 size=       0KiB time=N/A bitrate=N/A speed=N/A elapsed=0:00:02.65    \nframe=    0 fps=0.0 q=0.0 size=       0KiB time=N/A bitrate=N/A speed=N/A elapsed=0:00:03.15    \nframe=    0 fps=0.0 q=0.0 size=       0KiB time=N/A bitrate=N/A speed=N/A elapsed=0:00:03.68    \nframe=    0 fps=0.0 q=0.0 size=       0KiB time=N/A bitrate=N/A speed=N/A elapsed=0:00:04.20    \nframe=    0 fps=0.0 q=0.0 size=       0KiB time=N/A bitrate=N/A speed=N/A elapsed=0:00:04.77    \nframe=    0 fps=0.0 q=0.0 size=       0KiB time=N/A bitrate=N/A speed=N/A elapsed=0:00:05.28    \nframe=    0 fps=0.0 q=0.0 size=       0KiB time=N/A bitrate=N/A speed=N/A elapsed=0:00:05.81    \nframe=    0 fps=0.0 q=0.0 size=       0KiB time=N/A bitrate=N/A speed=N/A elapsed=0:00:06.34    \nframe=    0 fps=0.0 q=0.0 size=       0KiB time=N/A bitrate=N/A speed=N/A elapsed=0:00:06.85    \nframe=    0 fps=0.0 q=0.0 size=       0KiB time=N/A bitrate=N/A speed=N/A elapsed=0:00:07.39    \nframe=    0 fps=0.0 q=0.0 size=       0KiB time=N/A bitrate=N/A speed=N/A elapsed=0:00:07.90    \nframe=    0 fps=0.0 q=0.0 size=       0KiB time=N/A bitrate=N/A speed=N/A elapsed=0:00:08.43    \nframe=    0 fps=0.0 q=0.0 size=       0KiB time=N/A bitrate=N/A speed=N/A elapsed=0:00:08.94    \nframe=    0 fps=0.0 q=0.0 size=       0KiB time=N/A bitrate=N/A speed=N/A elapsed=0:00:09.47    \nframe=    0 fps=0.0 q=0.0 size=       0KiB time=N/A bitrate=N/A speed=N/A elapsed=0:00:10.02    \nframe=    0 fps=0.0 q=0.0 size=       0KiB time=N/A bitrate=N/A speed=N/A elapsed=0:00:10.55    \nframe=    0 fps=0.0 q=0.0 size=       0KiB time=N/A bitrate=N/A speed=N/A elapsed=0:00:11.07    \nframe=    0 fps=0.0 q=0.0 size=       0KiB time=N/A bitrate=N/A speed=N/A elapsed=0:00:11.61    \nframe=    0 fps=0.0 q=0.0 size=       0KiB time=N/A bitrate=N/A speed=N/A elapsed=0:00:12.16    \nframe=    0 fps=0.0 q=0.0 size=       0KiB time=N/A bitrate=N/A speed=N/A elapsed=0:00:12.78    \nframe=    0 fps=0.0 q=0.0 size=       0KiB time=N/A bitrate=N/A speed=N/A elapsed=0:00:13.37    \nframe=    0 fps=0.0 q=0.0 size=       0KiB time=N/A bitrate=N/A speed=N/A elapsed=0:00:13.93    \nframe=    0 fps=0.0 q=0.0 size=       0KiB time=N/A bitrate=N/A speed=N/A elapsed=0:00:14.54    \nframe=    0 fps=0.0 q=0.0 size=       0KiB time=N/A bitrate=N/A speed=N/A elapsed=0:00:15.07    \nframe=    0 fps=0.0 q=0.0 size=       0KiB time=N/A bitrate=N/A speed=N/A elapsed=0:00:15.63    \nframe=    0 fps=0.0 q=0.0 size=       0KiB time=N/A bitrate=N/A speed=N/A elapsed=0:00:16.20    \nframe=    0 fps=0.0 q=0.0 size=       0KiB time=N/A bitrate=N/A speed=N/A elapsed=0:00:16.73    \nframe=    1 fps=0.1 q=32.0 size=       0KiB time=-00:00:00.02 bitrate=N/A speed=N/A elapsed=0:00:17.30    \nframe=    1 fps=0.1 q=32.0 size=       0KiB time=-00:00:00.02 bitrate=N/A speed=N/A elapsed=0:00:17.87    \nframe=    1 fps=0.1 q=32.0 size=       0KiB time=-00:00:00.02 bitrate=N/A speed=N/A elapsed=0:00:18.42    \nframe=    1 fps=0.1 q=32.0 size=       0KiB time=-00:00:00.02 bitrate=N/A speed=N/A elapsed=0:00:18.97    \nframe=    1 fps=0.1 q=32.0 size=       0KiB time=-00:00:00.02 bitrate=N/A speed=N/A elapsed=0:00:19.52    \nframe=    2 fps=0.1 q=36.9 size=       0KiB time=00:00:00.00 bitrate=N/A speed=   0x elapsed=0:00:20.09    \nframe=    2 fps=0.1 q=36.9 size=       0KiB time=00:00:00.00 bitrate=N/A speed=   0x elapsed=0:00:20.65    \nframe=    2 fps=0.1 q=36.9 size=       0KiB time=00:00:00.00 bitrate=N/A speed=   0x elapsed=0:00:21.17    \nframe=    3 fps=0.1 q=39.1 size=       0KiB time=00:00:00.00 bitrate=N/A speed=   0x elapsed=0:00:21.68    \nframe=    3 fps=0.1 q=39.1 size=       0KiB time=00:00:00.02 bitrate=  17.6kbits/s speed=0.000899x elapsed=0:00:22.24    \nframe=    3 fps=0.1 q=39.1 size=       0KiB time=00:00:00.02 bitrate=  17.6kbits/s speed=0.000875x elapsed=0:00:22.84    \nframe=    3 fps=0.1 q=39.1 size=       0KiB time=00:00:00.02 bitrate=  17.6kbits/s speed=0.000856x elapsed=0:00:23.37    \nframe=    3 fps=0.1 q=39.1 size=       0KiB time=00:00:00.02 bitrate=  17.6kbits/s speed=0.000836x elapsed=0:00:23.90    \nframe=    3 fps=0.1 q=39.1 size=       0KiB time=00:00:00.02 bitrate=  17.6kbits/s speed=0.000819x elapsed=0:00:24.43    \nframe=    3 fps=0.1 q=39.1 size=       0KiB time=00:00:00.02 bitrate=  17.6kbits/s speed=0.0008x elapsed=0:00:24.98    \nframe=    3 fps=0.1 q=39.1 size=       0KiB time=00:00:00.02 bitrate=  17.6kbits/s speed=0.000782x elapsed=0:00:25.56    \nframe=    3 fps=0.1 q=39.1 size=       0KiB time=00:00:00.02 bitrate=  17.6kbits/s speed=0.000766x elapsed=0:00:26.09    \nframe=    3 fps=0.1 q=39.1 size=       0KiB time=00:00:00.02 bitrate=  17.6kbits/s speed=0.000751x elapsed=0:00:26.62    \nframe=    3 fps=0.1 q=39.1 size=       0KiB time=00:00:00.02 bitrate=  17.6kbits/s speed=0.000735x elapsed=0:00:27.19    \nframe=    3 fps=0.1 q=39.1 size=       0KiB time=00:00:00.02 bitrate=  17.6kbits/s speed=0.00072x elapsed=0:00:27.78    \nframe=    3 fps=0.1 q=39.1 size=       0KiB time=00:00:00.02 bitrate=  17.6kbits/s speed=0.000706x elapsed=0:00:28.34    \nframe=    3 fps=0.1 q=39.1 size=       0KiB time=00:00:00.02 bitrate=  17.6kbits/s speed=0.000693x elapsed=0:00:28.87    \nframe=    3 fps=0.1 q=39.1 size=       0KiB time=00:00:00.02 bitrate=  17.6kbits/s speed=0.00068x elapsed=0:00:29.40    \nframe=    4 fps=0.1 q=41.2 size=       0KiB time=00:00:00.04 bitrate=   8.8kbits/s speed=0.00134x elapsed=0:00:29.92    \nframe=    4 fps=0.1 q=41.2 size=       0KiB time=00:00:00.04 bitrate=   8.8kbits/s speed=0.00131x elapsed=0:00:30.45    \nframe=    4 fps=0.1 q=41.2 size=       0KiB time=00:00:00.04 bitrate=   8.8kbits/s speed=0.00129x elapsed=0:00:31.01    \nframe=    4 fps=0.1 q=41.2 size=       0KiB time=00:00:00.04 bitrate=   8.8kbits/s speed=0.00127x elapsed=0:00:31.56    \nframe=    4 fps=0.1 q=41.2 size=       0KiB time=00:00:00.04 bitrate=   8.8kbits/s speed=0.00125x elapsed=0:00:32.10    \nframe=    4 fps=0.1 q=41.2 size=       0KiB time=00:00:00.04 bitrate=   8.8kbits/s speed=0.00123x elapsed=0:00:32.65    \nframe=    4 fps=0.1 q=41.2 size=       0KiB time=00:00:00.04 bitrate=   8.8kbits/s speed=0.0012x elapsed=0:00:33.23    \nframe=    4 fps=0.1 q=41.2 size=       0KiB time=00:00:00.04 bitrate=   8.8kbits/s speed=0.00118x elapsed=0:00:33.79    \nframe=    4 fps=0.1 q=41.2 size=       0KiB time=00:00:00.04 bitrate=   8.8kbits/s speed=0.00116x elapsed=0:00:34.35    \nframe=    4 fps=0.1 q=41.2 size=       0KiB time=00:00:00.04 bitrate=   8.8kbits/s speed=0.00114x elapsed=0:00:34.96    \nframe=    4 fps=0.1 q=41.2 size=       0KiB time=00:00:00.04 bitrate=   8.8kbits/s speed=0.00113x elapsed=0:00:35.53    \nframe=    5 fps=0.1 q=40.1 size=       0KiB time=00:00:00.06 bitrate=   5.9kbits/s speed=0.00166x elapsed=0:00:36.05    \nframe=    5 fps=0.1 q=40.1 size=       0KiB time=00:00:00.06 bitrate=   5.9kbits/s speed=0.00164x elapsed=0:00:36.56    \nframe=    5 fps=0.1 q=40.1 size=       0KiB time=00:00:00.06 bitrate=   5.9kbits/s speed=0.00162x elapsed=0:00:37.08    \nframe=    5 fps=0.1 q=40.1 size=       0KiB time=00:00:00.06 bitrate=   5.9kbits/s speed=0.00159x elapsed=0:00:37.63    \nframe=    5 fps=0.1 q=40.1 size=       0KiB time=00:00:00.06 bitrate=   5.9kbits/s speed=0.00157x elapsed=0:00:38.14    \nframe=    5 fps=0.1 q=40.1 size=       0KiB time=00:00:00.06 bitrate=   5.9kbits/s speed=0.00155x elapsed=0:00:38.65    \nframe=    5 fps=0.1 q=40.1 size=       0KiB time=00:00:00.06 bitrate=   5.9kbits/s speed=0.00153x elapsed=0:00:39.17    \nframe=    5 fps=0.1 q=40.1 size=       0KiB time=00:00:00.06 bitrate=   5.9kbits/s speed=0.00151x elapsed=0:00:39.76    \nframe=    5 fps=0.1 q=40.1 size=       0KiB time=00:00:00.06 bitrate=   5.9kbits/s speed=0.00149x elapsed=0:00:40.36    \nframe=    5 fps=0.1 q=40.1 size=       0KiB time=00:00:00.06 bitrate=   5.9kbits/s speed=0.00147x elapsed=0:00:40.92    \nframe=    6 fps=0.1 q=34.7 size=       0KiB time=00:00:00.08 bitrate=   4.4kbits/s speed=0.00193x elapsed=0:00:41.50    \nframe=    6 fps=0.1 q=34.7 size=       0KiB time=00:00:00.08 bitrate=   4.4kbits/s speed=0.0019x elapsed=0:00:42.12    \nframe=    6 fps=0.1 q=34.7 size=       0KiB time=00:00:00.08 bitrate=   4.4kbits/s speed=0.00187x elapsed=0:00:42.74    \nframe=    6 fps=0.1 q=34.7 size=       0KiB time=00:00:00.08 bitrate=   4.4kbits/s speed=0.00185x elapsed=0:00:43.26    \nframe=    6 fps=0.1 q=34.7 size=       0KiB time=00:00:00.08 bitrate=   4.4kbits/s speed=0.00183x elapsed=0:00:43.81    \nframe=    6 fps=0.1 q=34.7 size=       0KiB time=00:00:00.08 bitrate=   4.4kbits/s speed=0.0018x elapsed=0:00:44.40    \nframe=    6 fps=0.1 q=34.7 size=       0KiB time=00:00:00.08 bitrate=   4.4kbits/s speed=0.00178x elapsed=0:00:44.95    \nframe=    7 fps=0.2 q=38.0 size=       0KiB time=00:00:00.10 bitrate=   3.5kbits/s speed=0.0022x elapsed=0:00:45.49    \nframe=    7 fps=0.2 q=38.0 size=       0KiB time=00:00:00.10 bitrate=   3.5kbits/s speed=0.00217x elapsed=0:00:46.03    \nframe=    7 fps=0.2 q=38.0 size=       0KiB time=00:00:00.10 bitrate=   3.5kbits/s speed=0.00215x elapsed=0:00:46.58    \nframe=    7 fps=0.1 q=38.0 size=       0KiB time=00:00:00.10 bitrate=   3.5kbits/s speed=0.00212x elapsed=0:00:47.15    \nframe=    7 fps=0.1 q=38.0 size=       0KiB time=00:00:00.10 bitrate=   3.5kbits/s speed=0.0021x elapsed=0:00:47.67    \nframe=    7 fps=0.1 q=38.0 size=       0KiB time=00:00:00.10 bitrate=   3.5kbits/s speed=0.00207x elapsed=0:00:48.21    \nframe=    7 fps=0.1 q=38.0 size=       0KiB time=00:00:00.10 bitrate=   3.5kbits/s speed=0.00205x elapsed=0:00:48.73    \nframe=    7 fps=0.1 q=38.0 size=       0KiB time=00:00:00.10 bitrate=   3.5kbits/s speed=0.00203x elapsed=0:00:49.27    \nframe=    7 fps=0.1 q=38.0 size=       0KiB time=00:00:00.10 bitrate=   3.5kbits/s speed=0.00201x elapsed=0:00:49.86    \nframe=    7 fps=0.1 q=38.0 size=       0KiB time=00:00:00.10 bitrate=   3.5kbits/s speed=0.00198x elapsed=0:00:50.42    \nframe=    7 fps=0.1 q=38.0 size=       0KiB time=00:00:00.10 bitrate=   3.5kbits/s speed=0.00196x elapsed=0:00:50.95    \nframe=    8 fps=0.2 q=39.6 size=       0KiB time=00:00:00.12 bitrate=   2.9kbits/s speed=0.00233x elapsed=0:00:51.47    \nframe=    8 fps=0.2 q=39.6 size=       0KiB time=00:00:00.12 bitrate=   2.9kbits/s speed=0.00231x elapsed=0:00:52.01    \nframe=    8 fps=0.2 q=39.6 size=       0KiB time=00:00:00.12 bitrate=   2.9kbits/s speed=0.00228x elapsed=0:00:52.56    \nframe=    8 fps=0.2 q=39.6 size=       0KiB time=00:00:00.12 bitrate=   2.9kbits/s speed=0.00226x elapsed=0:00:53.13    \nframe=    8 fps=0.1 q=39.6 size=       0KiB time=00:00:00.12 bitrate=   2.9kbits/s speed=0.00223x elapsed=0:00:53.72    \nframe=    8 fps=0.1 q=39.6 size=       0KiB time=00:00:00.12 bitrate=   2.9kbits/s speed=0.00221x elapsed=0:00:54.30    \nframe=    8 fps=0.1 q=39.6 size=       0KiB time=00:00:00.12 bitrate=   2.9kbits/s speed=0.00219x elapsed=0:00:54.86    \nframe=    8 fps=0.1 q=39.6 size=       0KiB time=00:00:00.12 bitrate=   2.9kbits/s speed=0.00217x elapsed=0:00:55.39    \nframe=    8 fps=0.1 q=39.6 size=       0KiB time=00:00:00.12 bitrate=   2.9kbits/s speed=0.00215x elapsed=0:00:55.91    \nframe=    9 fps=0.2 q=38.8 size=       0KiB time=00:00:00.14 bitrate=   2.5kbits/s speed=0.00248x elapsed=0:00:56.44    \nframe=    9 fps=0.2 q=38.8 size=       0KiB time=00:00:00.14 bitrate=   2.5kbits/s speed=0.00246x elapsed=0:00:57.01    \nframe=    9 fps=0.2 q=38.8 size=       0KiB time=00:00:00.14 bitrate=   2.5kbits/s speed=0.00243x elapsed=0:00:57.57    \nframe=    9 fps=0.2 q=38.8 size=       0KiB time=00:00:00.14 bitrate=   2.5kbits/s speed=0.00241x elapsed=0:00:58.12    \nframe=   10 fps=0.2 q=33.8 size=       0KiB time=00:00:00.16 bitrate=   2.2kbits/s speed=0.00273x elapsed=0:00:58.66    \nframe=   10 fps=0.2 q=33.8 size=       0KiB time=00:00:00.16 bitrate=   2.2kbits/s speed=0.0027x elapsed=0:00:59.19    \nframe=   10 fps=0.2 q=33.8 size=       0KiB time=00:00:00.16 bitrate=   2.2kbits/s speed=0.00268x elapsed=0:00:59.73    \nframe=   10 fps=0.2 q=33.8 size=       0KiB time=00:00:00.16 bitrate=   2.2kbits/s speed=0.00265x elapsed=0:01:00.28    \nframe=   10 fps=0.2 q=33.8 size=       0KiB time=00:00:00.16 bitrate=   2.2kbits/s speed=0.00263x elapsed=0:01:00.87    \nframe=   10 fps=0.2 q=33.8 size=       0KiB time=00:00:00.16 bitrate=   2.2kbits/s speed=0.0026x elapsed=0:01:01.44    \nframe=   11 fps=0.2 q=36.0 size=       0KiB time=00:00:00.18 bitrate=   2.0kbits/s speed=0.0029x elapsed=0:01:01.99    \nframe=   11 fps=0.2 q=36.0 size=       0KiB time=00:00:00.18 bitrate=   2.0kbits/s speed=0.00288x elapsed=0:01:02.52    \nframe=   11 fps=0.2 q=36.0 size=       0KiB time=00:00:00.18 bitrate=   2.0kbits/s speed=0.00285x elapsed=0:01:03.07    \nframe=   11 fps=0.2 q=36.0 size=       0KiB time=00:00:00.18 bitrate=   2.0kbits/s speed=0.00283x elapsed=0:01:03.63    \nframe=   11 fps=0.2 q=36.0 size=       0KiB time=00:00:00.18 bitrate=   2.0kbits/s speed=0.0028x elapsed=0:01:04.21    \nframe=   11 fps=0.2 q=36.0 size=       0KiB time=00:00:00.18 bitrate=   2.0kbits/s speed=0.00278x elapsed=0:01:04.75    \nframe=   11 fps=0.2 q=36.0 size=       0KiB time=00:00:00.18 bitrate=   2.0kbits/s speed=0.00276x elapsed=0:01:05.26    \nframe=   11 fps=0.2 q=36.0 size=       0KiB time=00:00:00.18 bitrate=   2.0kbits/s speed=0.00274x elapsed=0:01:05.81    \nframe=   12 fps=0.2 q=38.2 size=       0KiB time=00:00:00.20 bitrate=   1.8kbits/s speed=0.00301x elapsed=0:01:06.33    \nframe=   12 fps=0.2 q=38.2 size=       0KiB time=00:00:00.20 bitrate=   1.8kbits/s speed=0.00299x elapsed=0:01:06.88    \nframe=   12 fps=0.2 q=38.2 size=       0KiB time=00:00:00.20 bitrate=   1.8kbits/s speed=0.00297x elapsed=0:01:07.39    \nframe=   12 fps=0.2 q=38.2 size=       0KiB time=00:00:00.20 bitrate=   1.8kbits/s speed=0.00294x elapsed=0:01:07.91    \nframe=   13 fps=0.2 q=38.0 size=       0KiB time=00:00:00.22 bitrate=   1.6kbits/s speed=0.00321x elapsed=0:01:08.49    \nframe=   13 fps=0.2 q=38.0 size=       0KiB time=00:00:00.22 bitrate=   1.6kbits/s speed=0.00319x elapsed=0:01:09.01    \nframe=   13 fps=0.2 q=38.0 size=       0KiB time=00:00:00.22 bitrate=   1.6kbits/s speed=0.00316x elapsed=0:01:09.57    \nframe=   13 fps=0.2 q=38.0 size=       0KiB time=00:00:00.22 bitrate=   1.6kbits/s speed=0.00314x elapsed=0:01:10.11    \nframe=   14 fps=0.2 q=33.1 size=       0KiB time=00:00:00.24 bitrate=   1.5kbits/s speed=0.0034x elapsed=0:01:10.64    \nframe=   14 fps=0.2 q=33.1 size=       0KiB time=00:00:00.24 bitrate=   1.5kbits/s speed=0.00337x elapsed=0:01:11.15    \nframe=   15 fps=0.2 q=35.6 size=     256KiB time=00:00:00.26 bitrate=8067.3kbits/s speed=0.00363x elapsed=0:01:11.67    \nframe=   15 fps=0.2 q=35.6 size=     256KiB time=00:00:00.26 bitrate=8067.3kbits/s speed=0.0036x elapsed=0:01:12.21    \nframe=   15 fps=0.2 q=35.6 size=     256KiB time=00:00:00.26 bitrate=8067.3kbits/s speed=0.00357x elapsed=0:01:12.73    \nframe=   15 fps=0.2 q=35.6 size=     256KiB time=00:00:00.26 bitrate=8067.3kbits/s speed=0.00355x elapsed=0:01:13.25    \nframe=   15 fps=0.2 q=35.6 size=     256KiB time=00:00:00.26 bitrate=8067.3kbits/s speed=0.00352x elapsed=0:01:13.77    \nframe=   15 fps=0.2 q=35.6 size=     256KiB time=00:00:00.26 bitrate=8067.3kbits/s speed=0.0035x elapsed=0:01:14.30    \nframe=   16 fps=0.2 q=37.8 size=     256KiB time=00:00:00.28 bitrate=7491.1kbits/s speed=0.00374x elapsed=0:01:14.81    \nframe=   16 fps=0.2 q=37.8 size=     256KiB time=00:00:00.28 bitrate=7491.1kbits/s speed=0.00372x elapsed=0:01:15.32    \nframe=   16 fps=0.2 q=37.8 size=     256KiB time=00:00:00.28 bitrate=7491.1kbits/s speed=0.00369x elapsed=0:01:15.84    \nframe=   16 fps=0.2 q=37.8 size=     256KiB time=00:00:00.28 bitrate=7491.1kbits/s speed=0.00367x elapsed=0:01:16.37    \nframe=   17 fps=0.2 q=37.3 size=     256KiB time=00:00:00.30 bitrate=6991.7kbits/s speed=0.0039x elapsed=0:01:16.91    \nframe=   17 fps=0.2 q=37.3 size=     256KiB time=00:00:00.30 bitrate=6991.7kbits/s speed=0.00387x elapsed=0:01:17.44    \nframe=   18 fps=0.2 q=33.0 size=     256KiB time=00:00:00.32 bitrate=6554.7kbits/s speed=0.0041x elapsed=0:01:17.97    \nframe=   18 fps=0.2 q=33.0 size=     256KiB time=00:00:00.32 bitrate=6554.7kbits/s speed=0.00408x elapsed=0:01:18.48    \nframe=   18 fps=0.2 q=33.0 size=     256KiB time=00:00:00.32 bitrate=6554.7kbits/s speed=0.00405x elapsed=0:01:19.00    \nframe=   19 fps=0.2 q=35.4 size=     256KiB time=00:00:00.34 bitrate=6169.1kbits/s speed=0.00428x elapsed=0:01:19.51    \nframe=   19 fps=0.2 q=35.4 size=     256KiB time=00:00:00.34 bitrate=6169.1kbits/s speed=0.00425x elapsed=0:01:20.03    \nframe=   19 fps=0.2 q=35.4 size=     256KiB time=00:00:00.34 bitrate=6169.1kbits/s speed=0.00422x elapsed=0:01:20.55    \nframe=   19 fps=0.2 q=35.4 size=     256KiB time=00:00:00.34 bitrate=6169.1kbits/s speed=0.00419x elapsed=0:01:21.08    \nframe=   19 fps=0.2 q=35.4 size=     256KiB time=00:00:00.34 bitrate=6169.1kbits/s speed=0.00417x elapsed=0:01:21.59    \nframe=   20 fps=0.2 q=37.4 size=     256KiB time=00:00:00.36 bitrate=5826.4kbits/s speed=0.00438x elapsed=0:01:22.13    \nframe=   20 fps=0.2 q=37.4 size=     256KiB time=00:00:00.36 bitrate=5826.4kbits/s speed=0.00435x elapsed=0:01:22.67    \nframe=   20 fps=0.2 q=37.4 size=     256KiB time=00:00:00.36 bitrate=5826.4kbits/s speed=0.00433x elapsed=0:01:23.20    \nframe=   21 fps=0.3 q=37.2 size=     256KiB time=00:00:00.38 bitrate=5519.7kbits/s speed=0.00454x elapsed=0:01:23.71    \nframe=   21 fps=0.2 q=37.2 size=     256KiB time=00:00:00.38 bitrate=5519.7kbits/s speed=0.00451x elapsed=0:01:24.23    \nframe=   21 fps=0.2 q=37.2 size=     256KiB time=00:00:00.38 bitrate=5519.7kbits/s speed=0.00448x elapsed=0:01:24.76    \nframe=   22 fps=0.3 q=32.7 size=     256KiB time=00:00:00.40 bitrate=5243.8kbits/s speed=0.00469x elapsed=0:01:25.28    \nframe=   22 fps=0.3 q=32.7 size=     256KiB time=00:00:00.40 bitrate=5243.8kbits/s speed=0.00466x elapsed=0:01:25.80    \nframe=   23 fps=0.3 q=35.2 size=     256KiB time=00:00:00.42 bitrate=4994.1kbits/s speed=0.00487x elapsed=0:01:26.32    \nframe=   23 fps=0.3 q=35.2 size=     256KiB time=00:00:00.42 bitrate=4994.1kbits/s speed=0.00484x elapsed=0:01:26.85    \nframe=   23 fps=0.3 q=35.2 size=     256KiB time=00:00:00.42 bitrate=4994.1kbits/s speed=0.00481x elapsed=0:01:27.36    \nframe=   23 fps=0.3 q=35.2 size=     256KiB time=00:00:00.42 bitrate=4994.1kbits/s speed=0.00478x elapsed=0:01:27.88    \nframe=   23 fps=0.3 q=35.2 size=     256KiB time=00:00:00.42 bitrate=4994.1kbits/s speed=0.00475x elapsed=0:01:28.42    \nframe=   23 fps=0.3 q=35.2 size=     256KiB time=00:00:00.42 bitrate=4994.1kbits/s speed=0.00472x elapsed=0:01:28.96    \nframe=   23 fps=0.3 q=35.2 size=     256KiB time=00:00:00.42 bitrate=4994.1kbits/s speed=0.00469x elapsed=0:01:29.50    \nframe=   23 fps=0.3 q=35.2 size=     256KiB time=00:00:00.42 bitrate=4994.1kbits/s speed=0.00466x elapsed=0:01:30.05    \nframe=   24 fps=0.3 q=37.3 size=     256KiB time=00:00:00.44 bitrate=4767.1kbits/s speed=0.00486x elapsed=0:01:30.57    \nframe=   24 fps=0.3 q=37.3 size=     256KiB time=00:00:00.44 bitrate=4767.1kbits/s speed=0.00483x elapsed=0:01:31.14    \nframe=   24 fps=0.3 q=37.3 size=     256KiB time=00:00:00.44 bitrate=4767.1kbits/s speed=0.0048x elapsed=0:01:31.68    \nframe=   24 fps=0.3 q=37.3 size=     256KiB time=00:00:00.44 bitrate=4767.1kbits/s speed=0.00477x elapsed=0:01:32.20    \nframe=   24 fps=0.3 q=37.3 size=     256KiB time=00:00:00.44 bitrate=4767.1kbits/s speed=0.00475x elapsed=0:01:32.72    \nframe=   24 fps=0.3 q=37.3 size=     256KiB time=00:00:00.44 bitrate=4767.1kbits/s speed=0.00472x elapsed=0:01:33.26    \nframe=   25 fps=0.3 q=37.2 size=     256KiB time=00:00:00.46 bitrate=4559.8kbits/s speed=0.0049x elapsed=0:01:33.78    \nframe=   25 fps=0.3 q=37.2 size=     256KiB time=00:00:00.46 bitrate=4559.8kbits/s speed=0.00488x elapsed=0:01:34.31    \nframe=   25 fps=0.3 q=37.2 size=     256KiB time=00:00:00.46 bitrate=4559.8kbits/s speed=0.00485x elapsed=0:01:34.84    \nframe=   26 fps=0.3 q=32.9 size=     256KiB time=00:00:00.48 bitrate=4369.8kbits/s speed=0.00503x elapsed=0:01:35.38    \nframe=   27 fps=0.3 q=35.1 size=     256KiB time=00:00:00.50 bitrate=4195.0kbits/s speed=0.00521x elapsed=0:01:35.90    \nframe=   27 fps=0.3 q=35.1 size=     256KiB time=00:00:00.50 bitrate=4195.0kbits/s speed=0.00518x elapsed=0:01:36.43    \nframe=   27 fps=0.3 q=35.1 size=     256KiB time=00:00:00.50 bitrate=4195.0kbits/s speed=0.00516x elapsed=0:01:36.93    \nframe=   27 fps=0.3 q=35.1 size=     256KiB time=00:00:00.50 bitrate=4195.0kbits/s speed=0.00513x elapsed=0:01:37.45    \nframe=   27 fps=0.3 q=35.1 size=     256KiB time=00:00:00.50 bitrate=4195.0kbits/s speed=0.0051x elapsed=0:01:37.97    \nframe=   28 fps=0.3 q=37.2 size=     512KiB time=00:00:00.52 bitrate=8066.6kbits/s speed=0.00528x elapsed=0:01:38.49    \nframe=   28 fps=0.3 q=37.2 size=     512KiB time=00:00:00.52 bitrate=8066.6kbits/s speed=0.00525x elapsed=0:01:39.01    \nframe=   28 fps=0.3 q=37.2 size=     512KiB time=00:00:00.52 bitrate=8066.6kbits/s speed=0.00522x elapsed=0:01:39.54    \nframe=   29 fps=0.3 q=37.2 size=     512KiB time=00:00:00.54 bitrate=7767.9kbits/s speed=0.0054x elapsed=0:01:40.07    \nframe=   29 fps=0.3 q=37.2 size=     512KiB time=00:00:00.54 bitrate=7767.9kbits/s speed=0.00537x elapsed=0:01:40.58    \nframe=   30 fps=0.3 q=32.7 size=     512KiB time=00:00:00.56 bitrate=7490.5kbits/s speed=0.00554x elapsed=0:01:41.10    \nframe=   31 fps=0.3 q=35.2 size=     512KiB time=00:00:00.58 bitrate=7232.2kbits/s speed=0.00571x elapsed=0:01:41.61    \nframe=   31 fps=0.3 q=35.2 size=     512KiB time=00:00:00.58 bitrate=7232.2kbits/s speed=0.00568x elapsed=0:01:42.13    \nframe=   31 fps=0.3 q=35.2 size=     512KiB time=00:00:00.58 bitrate=7232.2kbits/s speed=0.00565x elapsed=0:01:42.66    \nframe=   31 fps=0.3 q=35.2 size=     512KiB time=00:00:00.58 bitrate=7232.2kbits/s speed=0.00562x elapsed=0:01:43.19    \nframe=   31 fps=0.3 q=35.2 size=     512KiB time=00:00:00.58 bitrate=7232.2kbits/s speed=0.00559x elapsed=0:01:43.71    \nframe=   31 fps=0.3 q=35.2 size=     512KiB time=00:00:00.58 bitrate=7232.2kbits/s speed=0.00556x elapsed=0:01:44.22    \nframe=   32 fps=0.3 q=37.4 size=     512KiB time=00:00:00.60 bitrate=6991.1kbits/s speed=0.00573x elapsed=0:01:44.74    \nframe=   32 fps=0.3 q=37.4 size=     512KiB time=00:00:00.60 bitrate=6991.1kbits/s speed=0.0057x elapsed=0:01:45.24    \nframe=   33 fps=0.3 q=37.2 size=     512KiB time=00:00:00.62 bitrate=6765.6kbits/s speed=0.00586x elapsed=0:01:45.76    \nframe=   33 fps=0.3 q=37.2 size=     512KiB time=00:00:00.62 bitrate=6765.6kbits/s speed=0.00583x elapsed=0:01:46.28    \nframe=   33 fps=0.3 q=37.2 size=     512KiB time=00:00:00.62 bitrate=6765.6kbits/s speed=0.0058x elapsed=0:01:46.82    \nframe=   34 fps=0.3 q=33.0 size=     512KiB time=00:00:00.64 bitrate=6554.1kbits/s speed=0.00596x elapsed=0:01:47.32    \nframe=   35 fps=0.3 q=35.1 size=     512KiB time=00:00:00.66 bitrate=6355.5kbits/s speed=0.00612x elapsed=0:01:47.85    \nframe=   35 fps=0.3 q=35.1 size=     512KiB time=00:00:00.66 bitrate=6355.5kbits/s speed=0.00609x elapsed=0:01:48.38    \nframe=   35 fps=0.3 q=35.1 size=     512KiB time=00:00:00.66 bitrate=6355.5kbits/s speed=0.00606x elapsed=0:01:48.90    \nframe=   35 fps=0.3 q=35.1 size=     512KiB time=00:00:00.66 bitrate=6355.5kbits/s speed=0.00603x elapsed=0:01:49.44    \nframe=   36 fps=0.3 q=37.1 size=     512KiB time=00:00:00.68 bitrate=6168.6kbits/s speed=0.00618x elapsed=0:01:49.96    \nframe=   36 fps=0.3 q=37.1 size=     512KiB time=00:00:00.68 bitrate=6168.6kbits/s speed=0.00615x elapsed=0:01:50.48    \nframe=   37 fps=0.3 q=37.2 size=     512KiB time=00:00:00.70 bitrate=5992.4kbits/s speed=0.00631x elapsed=0:01:51.00    \nframe=   37 fps=0.3 q=37.2 size=     512KiB time=00:00:00.70 bitrate=5992.4kbits/s speed=0.00628x elapsed=0:01:51.51    \nframe=   38 fps=0.3 q=32.9 size=     512KiB time=00:00:00.72 bitrate=5825.9kbits/s speed=0.00643x elapsed=0:01:52.03    \nframe=   38 fps=0.3 q=32.9 size=     512KiB time=00:00:00.72 bitrate=5825.9kbits/s speed=0.0064x elapsed=0:01:52.56    \nframe=   39 fps=0.3 q=34.9 size=     512KiB time=00:00:00.74 bitrate=5668.5kbits/s speed=0.00654x elapsed=0:01:53.09    \nframe=   39 fps=0.3 q=34.9 size=     512KiB time=00:00:00.74 bitrate=5668.5kbits/s speed=0.00651x elapsed=0:01:53.60    \nframe=   39 fps=0.3 q=34.9 size=     512KiB time=00:00:00.74 bitrate=5668.5kbits/s speed=0.00648x elapsed=0:01:54.13    \nframe=   39 fps=0.3 q=34.9 size=     512KiB time=00:00:00.74 bitrate=5668.5kbits/s speed=0.00645x elapsed=0:01:54.65    \nframe=   40 fps=0.3 q=37.1 size=     512KiB time=00:00:00.76 bitrate=5519.3kbits/s speed=0.0066x elapsed=0:01:55.18    \nframe=   40 fps=0.3 q=37.1 size=     512KiB time=00:00:00.76 bitrate=5519.3kbits/s speed=0.00657x elapsed=0:01:55.69    \nframe=   40 fps=0.3 q=37.1 size=     512KiB time=00:00:00.76 bitrate=5519.3kbits/s speed=0.00654x elapsed=0:01:56.22    \nframe=   41 fps=0.4 q=37.1 size=     512KiB time=00:00:00.78 bitrate=5377.8kbits/s speed=0.00668x elapsed=0:01:56.75    \nframe=   41 fps=0.3 q=37.1 size=     512KiB time=00:00:00.78 bitrate=5377.8kbits/s speed=0.00665x elapsed=0:01:57.26    \nframe=   41 fps=0.3 q=37.1 size=     512KiB time=00:00:00.78 bitrate=5377.8kbits/s speed=0.00662x elapsed=0:01:57.78    \nframe=   42 fps=0.4 q=33.0 size=     512KiB time=00:00:00.80 bitrate=5243.3kbits/s speed=0.00676x elapsed=0:01:58.30    \nframe=   42 fps=0.4 q=33.0 size=     512KiB time=00:00:00.80 bitrate=5243.3kbits/s speed=0.00673x elapsed=0:01:58.81    \nframe=   43 fps=0.4 q=34.9 size=     768KiB time=00:00:00.82 bitrate=7672.9kbits/s speed=0.00687x elapsed=0:01:59.33    \nframe=   43 fps=0.4 q=34.9 size=     768KiB time=00:00:00.82 bitrate=7672.9kbits/s speed=0.00684x elapsed=0:01:59.85    \nframe=   43 fps=0.4 q=34.9 size=     768KiB time=00:00:00.82 bitrate=7672.9kbits/s speed=0.00681x elapsed=0:02:00.35    \nframe=   43 fps=0.4 q=34.9 size=     768KiB time=00:00:00.82 bitrate=7672.9kbits/s speed=0.00678x elapsed=0:02:00.88    \nframe=   44 fps=0.4 q=37.0 size=     768KiB time=00:00:00.84 bitrate=7490.2kbits/s speed=0.00692x elapsed=0:02:01.40    \nframe=   44 fps=0.4 q=37.0 size=     768KiB time=00:00:00.84 bitrate=7490.2kbits/s speed=0.00689x elapsed=0:02:01.90    \nframe=   44 fps=0.4 q=37.0 size=     768KiB time=00:00:00.84 bitrate=7490.2kbits/s speed=0.00686x elapsed=0:02:02.42    \nframe=   44 fps=0.4 q=37.0 size=     768KiB time=00:00:00.84 bitrate=7490.2kbits/s speed=0.00683x elapsed=0:02:02.94    \nframe=   45 fps=0.4 q=36.9 size=     768KiB time=00:00:00.86 bitrate=7316.1kbits/s speed=0.00697x elapsed=0:02:03.45    \nframe=   45 fps=0.4 q=36.9 size=     768KiB time=00:00:00.86 bitrate=7316.1kbits/s speed=0.00694x elapsed=0:02:03.97    \nframe=   45 fps=0.4 q=36.9 size=     768KiB time=00:00:00.86 bitrate=7316.1kbits/s speed=0.00691x elapsed=0:02:04.48    \nframe=   46 fps=0.4 q=33.2 size=     768KiB time=00:00:00.88 bitrate=7149.8kbits/s speed=0.00704x elapsed=0:02:05.01    \nframe=   46 fps=0.4 q=33.2 size=     768KiB time=00:00:00.88 bitrate=7149.8kbits/s speed=0.00701x elapsed=0:02:05.54    \nframe=   47 fps=0.4 q=34.7 size=     768KiB time=00:00:00.90 bitrate=6990.9kbits/s speed=0.00714x elapsed=0:02:06.06    \nframe=   47 fps=0.4 q=34.7 size=     768KiB time=00:00:00.90 bitrate=6990.9kbits/s speed=0.00711x elapsed=0:02:06.60    \nframe=   47 fps=0.4 q=34.7 size=     768KiB time=00:00:00.90 bitrate=6990.9kbits/s speed=0.00708x elapsed=0:02:07.11    \nframe=   47 fps=0.4 q=34.7 size=     768KiB time=00:00:00.90 bitrate=6990.9kbits/s speed=0.00705x elapsed=0:02:07.65    \nframe=   48 fps=0.4 q=37.0 size=     768KiB time=00:00:00.92 bitrate=6838.9kbits/s speed=0.00718x elapsed=0:02:08.16    \nframe=   48 fps=0.4 q=37.0 size=     768KiB time=00:00:00.92 bitrate=6838.9kbits/s speed=0.00715x elapsed=0:02:08.67    \nframe=   48 fps=0.4 q=37.0 size=     768KiB time=00:00:00.92 bitrate=6838.9kbits/s speed=0.00712x elapsed=0:02:09.19    \nframe=   48 fps=0.4 q=37.0 size=     768KiB time=00:00:00.92 bitrate=6838.9kbits/s speed=0.00709x elapsed=0:02:09.70    \nframe=   48 fps=0.4 q=37.0 size=     768KiB time=00:00:00.92 bitrate=6838.9kbits/s speed=0.00706x elapsed=0:02:10.22    \nframe=   48 fps=0.4 q=37.0 size=     768KiB time=00:00:00.92 bitrate=6838.9kbits/s speed=0.00704x elapsed=0:02:10.73    \nframe=   48 fps=0.4 q=37.0 size=     768KiB time=00:00:00.92 bitrate=6838.9kbits/s speed=0.00701x elapsed=0:02:11.25    \nframe=   49 fps=0.4 q=36.8 size=     768KiB time=00:00:00.94 bitrate=6693.4kbits/s speed=0.00713x elapsed=0:02:11.77    \nframe=   49 fps=0.4 q=36.8 size=     768KiB time=00:00:00.94 bitrate=6693.4kbits/s speed=0.0071x elapsed=0:02:12.30    \nframe=   49 fps=0.4 q=36.8 size=     768KiB time=00:00:00.94 bitrate=6693.4kbits/s speed=0.00708x elapsed=0:02:12.82    \nframe=   50 fps=0.4 q=32.8 size=     768KiB time=00:00:00.96 bitrate=6554.0kbits/s speed=0.0072x elapsed=0:02:13.34    \nframe=   50 fps=0.4 q=32.8 size=     768KiB time=00:00:00.96 bitrate=6554.0kbits/s speed=0.00717x elapsed=0:02:13.87    \nframe=   51 fps=0.4 q=35.0 size=     768KiB time=00:00:00.98 bitrate=6420.2kbits/s speed=0.00729x elapsed=0:02:14.38    \nframe=   51 fps=0.4 q=35.0 size=     768KiB time=00:00:00.98 bitrate=6420.2kbits/s speed=0.00726x elapsed=0:02:14.91    \nframe=   51 fps=0.4 q=35.0 size=     768KiB time=00:00:00.98 bitrate=6420.2kbits/s speed=0.00724x elapsed=0:02:15.41    \nframe=   51 fps=0.4 q=35.0 size=     768KiB time=00:00:00.98 bitrate=6420.2kbits/s speed=0.00721x elapsed=0:02:15.93    \nframe=   51 fps=0.4 q=35.0 size=     768KiB time=00:00:00.98 bitrate=6420.2kbits/s speed=0.00718x elapsed=0:02:16.49    \nframe=   51 fps=0.4 q=35.0 size=     768KiB time=00:00:00.98 bitrate=6420.2kbits/s speed=0.00715x elapsed=0:02:17.02    \nframe=   51 fps=0.4 q=35.0 size=     768KiB time=00:00:00.98 bitrate=6420.2kbits/s speed=0.00712x elapsed=0:02:17.61    \nframe=   51 fps=0.4 q=35.0 size=     768KiB time=00:00:00.98 bitrate=6420.2kbits/s speed=0.00709x elapsed=0:02:18.19    \nframe=   52 fps=0.4 q=37.1 size=     768KiB time=00:00:01.00 bitrate=6291.8kbits/s speed=0.00721x elapsed=0:02:18.74    \nframe=   52 fps=0.4 q=37.1 size=     768KiB time=00:00:01.00 bitrate=6291.8kbits/s speed=0.00718x elapsed=0:02:19.27    \nframe=   52 fps=0.4 q=37.1 size=     768KiB time=00:00:01.00 bitrate=6291.8kbits/s speed=0.00715x elapsed=0:02:19.79    \nframe=   52 fps=0.4 q=37.1 size=     768KiB time=00:00:01.00 bitrate=6291.8kbits/s speed=0.00713x elapsed=0:02:20.34    \nframe=   52 fps=0.4 q=37.1 size=     768KiB time=00:00:01.00 bitrate=6291.8kbits/s speed=0.0071x elapsed=0:02:20.86    \nframe=   53 fps=0.4 q=36.9 size=     768KiB time=00:00:01.02 bitrate=6168.4kbits/s speed=0.00721x elapsed=0:02:21.37    \nframe=   53 fps=0.4 q=36.9 size=     768KiB time=00:00:01.02 bitrate=6168.4kbits/s speed=0.00719x elapsed=0:02:21.92    \nframe=   54 fps=0.4 q=32.8 size=     768KiB time=00:00:01.04 bitrate=6049.8kbits/s speed=0.0073x elapsed=0:02:22.43    \nframe=   54 fps=0.4 q=32.8 size=     768KiB time=00:00:01.04 bitrate=6049.8kbits/s speed=0.00728x elapsed=0:02:22.95    \nframe=   55 fps=0.4 q=35.0 size=    1024KiB time=00:00:01.06 bitrate=7914.1kbits/s speed=0.00739x elapsed=0:02:23.47    \nframe=   55 fps=0.4 q=35.0 size=    1024KiB time=00:00:01.06 bitrate=7914.1kbits/s speed=0.00736x elapsed=0:02:23.98    \nframe=   55 fps=0.4 q=35.0 size=    1024KiB time=00:00:01.06 bitrate=7914.1kbits/s speed=0.00734x elapsed=0:02:24.50    \nframe=   55 fps=0.4 q=35.0 size=    1024KiB time=00:00:01.06 bitrate=7914.1kbits/s speed=0.00731x elapsed=0:02:25.02    \nframe=   55 fps=0.4 q=35.0 size=    1024KiB time=00:00:01.06 bitrate=7914.1kbits/s speed=0.00728x elapsed=0:02:25.54    \nframe=   56 fps=0.4 q=37.0 size=    1024KiB time=00:00:01.08 bitrate=7767.6kbits/s speed=0.00739x elapsed=0:02:26.06    \nframe=   56 fps=0.4 q=37.0 size=    1024KiB time=00:00:01.08 bitrate=7767.6kbits/s speed=0.00737x elapsed=0:02:26.58    \nframe=   56 fps=0.4 q=37.0 size=    1024KiB time=00:00:01.08 bitrate=7767.6kbits/s speed=0.00734x elapsed=0:02:27.12    \nframe=   57 fps=0.4 q=37.3 size=    1024KiB time=00:00:01.10 bitrate=7626.3kbits/s speed=0.00745x elapsed=0:02:27.64    \nframe=   58 fps=0.4 q=32.8 size=    1024KiB time=00:00:01.12 bitrate=7490.1kbits/s speed=0.00756x elapsed=0:02:28.15    \nframe=   58 fps=0.4 q=32.8 size=    1024KiB time=00:00:01.12 bitrate=7490.1kbits/s speed=0.00753x elapsed=0:02:28.68    \nframe=   59 fps=0.4 q=34.9 size=    1024KiB time=00:00:01.14 bitrate=7358.7kbits/s speed=0.00764x elapsed=0:02:29.20    \nframe=   59 fps=0.4 q=34.9 size=    1024KiB time=00:00:01.14 bitrate=7358.7kbits/s speed=0.00761x elapsed=0:02:29.72    \nframe=   59 fps=0.4 q=34.9 size=    1024KiB time=00:00:01.14 bitrate=7358.7kbits/s speed=0.00759x elapsed=0:02:30.24    \nframe=   59 fps=0.4 q=34.9 size=    1024KiB time=00:00:01.14 bitrate=7358.7kbits/s speed=0.00756x elapsed=0:02:30.75    \nframe=   60 fps=0.4 q=37.1 size=    1024KiB time=00:00:01.16 bitrate=7231.9kbits/s speed=0.00767x elapsed=0:02:31.27    \nframe=   60 fps=0.4 q=37.1 size=    1024KiB time=00:00:01.16 bitrate=7231.9kbits/s speed=0.00764x elapsed=0:02:31.78    \nframe=   60 fps=0.4 q=37.1 size=    1024KiB time=00:00:01.16 bitrate=7231.9kbits/s speed=0.00762x elapsed=0:02:32.30    \nframe=   61 fps=0.4 q=37.3 size=    1024KiB time=00:00:01.18 bitrate=7109.3kbits/s speed=0.00772x elapsed=0:02:32.81    \nframe=   62 fps=0.4 q=32.8 size=    1024KiB time=00:00:01.20 bitrate=6990.8kbits/s speed=0.00783x elapsed=0:02:33.32    \nframe=   62 fps=0.4 q=32.8 size=    1024KiB time=00:00:01.20 bitrate=6990.8kbits/s speed=0.0078x elapsed=0:02:33.84    \nframe=   63 fps=0.4 q=35.0 size=    1024KiB time=00:00:01.22 bitrate=6876.2kbits/s speed=0.0079x elapsed=0:02:34.38    \nframe=   63 fps=0.4 q=35.0 size=    1024KiB time=00:00:01.22 bitrate=6876.2kbits/s speed=0.00788x elapsed=0:02:34.89    \nframe=   63 fps=0.4 q=35.0 size=    1024KiB time=00:00:01.22 bitrate=6876.2kbits/s speed=0.00785x elapsed=0:02:35.41    \nframe=   63 fps=0.4 q=35.0 size=    1024KiB time=00:00:01.22 bitrate=6876.2kbits/s speed=0.00782x elapsed=0:02:35.93    \nframe=   64 fps=0.4 q=37.2 size=    1024KiB time=00:00:01.24 bitrate=6765.3kbits/s speed=0.00793x elapsed=0:02:36.43    \nframe=   64 fps=0.4 q=37.2 size=    1024KiB time=00:00:01.24 bitrate=6765.3kbits/s speed=0.0079x elapsed=0:02:36.96    \nframe=   64 fps=0.4 q=37.2 size=    1024KiB time=00:00:01.24 bitrate=6765.3kbits/s speed=0.00787x elapsed=0:02:37.46    \nframe=   65 fps=0.4 q=37.3 size=    1024KiB time=00:00:01.26 bitrate=6657.9kbits/s speed=0.00798x elapsed=0:02:37.98    \nframe=   65 fps=0.4 q=37.3 size=    1024KiB time=00:00:01.26 bitrate=6657.9kbits/s speed=0.00795x elapsed=0:02:38.51    \nframe=   66 fps=0.4 q=32.9 size=    1024KiB time=00:00:01.28 bitrate=6553.9kbits/s speed=0.00805x elapsed=0:02:39.01    \nframe=   66 fps=0.4 q=32.9 size=    1024KiB time=00:00:01.28 bitrate=6553.9kbits/s speed=0.00802x elapsed=0:02:39.53    \nframe=   66 fps=0.4 q=32.9 size=    1024KiB time=00:00:01.28 bitrate=6553.9kbits/s speed=0.008x elapsed=0:02:40.05    \nframe=   67 fps=0.4 q=35.2 size=    1280KiB time=00:00:01.30 bitrate=8066.2kbits/s speed=0.0081x elapsed=0:02:40.56    \nframe=   67 fps=0.4 q=35.2 size=    1280KiB time=00:00:01.30 bitrate=8066.2kbits/s speed=0.00807x elapsed=0:02:41.08    \nframe=   67 fps=0.4 q=35.2 size=    1280KiB time=00:00:01.30 bitrate=8066.2kbits/s speed=0.00804x elapsed=0:02:41.61    \nframe=   67 fps=0.4 q=35.2 size=    1280KiB time=00:00:01.30 bitrate=8066.2kbits/s speed=0.00802x elapsed=0:02:42.13    \nframe=   68 fps=0.4 q=37.3 size=    1280KiB time=00:00:01.32 bitrate=7944.0kbits/s speed=0.00811x elapsed=0:02:42.68    \nframe=   68 fps=0.4 q=37.3 size=    1280KiB time=00:00:01.32 bitrate=7944.0kbits/s speed=0.00809x elapsed=0:02:43.22    \nframe=   68 fps=0.4 q=37.3 size=    1280KiB time=00:00:01.32 bitrate=7944.0kbits/s speed=0.00806x elapsed=0:02:43.77    \nframe=   69 fps=0.4 q=37.5 size=    1280KiB time=00:00:01.34 bitrate=7825.5kbits/s speed=0.00815x elapsed=0:02:44.32    \nframe=   69 fps=0.4 q=37.5 size=    1280KiB time=00:00:01.34 bitrate=7825.5kbits/s speed=0.00813x elapsed=0:02:44.84    \nframe=   69 fps=0.4 q=37.5 size=    1280KiB time=00:00:01.34 bitrate=7825.5kbits/s speed=0.0081x elapsed=0:02:45.42    \nframe=   70 fps=0.4 q=33.1 size=    1280KiB time=00:00:01.36 bitrate=7710.4kbits/s speed=0.00819x elapsed=0:02:45.96    \nframe=   70 fps=0.4 q=33.1 size=    1280KiB time=00:00:01.36 bitrate=7710.4kbits/s speed=0.00817x elapsed=0:02:46.49    \nframe=   71 fps=0.4 q=35.4 size=    1280KiB time=00:00:01.38 bitrate=7598.6kbits/s speed=0.00826x elapsed=0:02:47.02    \nframe=   71 fps=0.4 q=35.4 size=    1280KiB time=00:00:01.38 bitrate=7598.6kbits/s speed=0.00824x elapsed=0:02:47.55    \nframe=   71 fps=0.4 q=35.4 size=    1280KiB time=00:00:01.38 bitrate=7598.6kbits/s speed=0.00821x elapsed=0:02:48.07    \nframe=   71 fps=0.4 q=35.4 size=    1280KiB time=00:00:01.38 bitrate=7598.6kbits/s speed=0.00818x elapsed=0:02:48.62    \nframe=   71 fps=0.4 q=35.4 size=    1280KiB time=00:00:01.38 bitrate=7598.6kbits/s speed=0.00816x elapsed=0:02:49.15    \nframe=   71 fps=0.4 q=35.4 size=    1280KiB time=00:00:01.38 bitrate=7598.6kbits/s speed=0.00813x elapsed=0:02:49.69    \nframe=   72 fps=0.4 q=37.7 size=    1280KiB time=00:00:01.40 bitrate=7490.1kbits/s speed=0.00822x elapsed=0:02:50.23    \nframe=   72 fps=0.4 q=37.7 size=    1280KiB time=00:00:01.40 bitrate=7490.1kbits/s speed=0.0082x elapsed=0:02:50.75    \nframe=   72 fps=0.4 q=37.7 size=    1280KiB time=00:00:01.40 bitrate=7490.1kbits/s speed=0.00817x elapsed=0:02:51.27    \nframe=   72 fps=0.4 q=37.7 size=    1280KiB time=00:00:01.40 bitrate=7490.1kbits/s speed=0.00815x elapsed=0:02:51.80    \nframe=   72 fps=0.4 q=37.7 size=    1280KiB time=00:00:01.40 bitrate=7490.1kbits/s speed=0.00812x elapsed=0:02:52.33    \nframe=   73 fps=0.4 q=37.7 size=    1280KiB time=00:00:01.42 bitrate=7384.6kbits/s speed=0.00821x elapsed=0:02:52.87    \nframe=   73 fps=0.4 q=37.7 size=    1280KiB time=00:00:01.42 bitrate=7384.6kbits/s speed=0.00819x elapsed=0:02:53.40    \nframe=   73 fps=0.4 q=37.7 size=    1280KiB time=00:00:01.42 bitrate=7384.6kbits/s speed=0.00816x elapsed=0:02:53.96    \nframe=   73 fps=0.4 q=37.7 size=    1280KiB time=00:00:01.42 bitrate=7384.6kbits/s speed=0.00814x elapsed=0:02:54.53    \nframe=   73 fps=0.4 q=37.7 size=    1280KiB time=00:00:01.42 bitrate=7384.6kbits/s speed=0.00811x elapsed=0:02:55.04    \nframe=   74 fps=0.4 q=33.1 size=    1280KiB time=00:00:01.44 bitrate=7282.0kbits/s speed=0.0082x elapsed=0:02:55.56    \nframe=   74 fps=0.4 q=33.1 size=    1280KiB time=00:00:01.44 bitrate=7282.0kbits/s speed=0.00818x elapsed=0:02:56.08    \nframe=   75 fps=0.4 q=35.5 size=    1280KiB time=00:00:01.46 bitrate=7182.3kbits/s speed=0.00827x elapsed=0:02:56.59    \nframe=   75 fps=0.4 q=35.5 size=    1280KiB time=00:00:01.46 bitrate=7182.3kbits/s speed=0.00824x elapsed=0:02:57.14    \nframe=   75 fps=0.4 q=35.5 size=    1280KiB time=00:00:01.46 bitrate=7182.3kbits/s speed=0.00822x elapsed=0:02:57.67    \nframe=   75 fps=0.4 q=35.5 size=    1280KiB time=00:00:01.46 bitrate=7182.3kbits/s speed=0.00819x elapsed=0:02:58.18    \nframe=   75 fps=0.4 q=35.5 size=    1280KiB time=00:00:01.46 bitrate=7182.3kbits/s speed=0.00817x elapsed=0:02:58.70    \nframe=   75 fps=0.4 q=35.5 size=    1280KiB time=00:00:01.46 bitrate=7182.3kbits/s speed=0.00815x elapsed=0:02:59.22    \nframe=   75 fps=0.4 q=35.5 size=    1280KiB time=00:00:01.46 bitrate=7182.3kbits/s speed=0.00812x elapsed=0:02:59.79    \nframe=   76 fps=0.4 q=37.8 size=    1280KiB time=00:00:01.48 bitrate=7085.2kbits/s speed=0.00821x elapsed=0:03:00.31    \nframe=   76 fps=0.4 q=37.8 size=    1280KiB time=00:00:01.48 bitrate=7085.2kbits/s speed=0.00818x elapsed=0:03:00.83    \nframe=   76 fps=0.4 q=37.8 size=    1280KiB time=00:00:01.48 bitrate=7085.2kbits/s speed=0.00816x elapsed=0:03:01.34    \nframe=   76 fps=0.4 q=37.8 size=    1280KiB time=00:00:01.48 bitrate=7085.2kbits/s speed=0.00814x elapsed=0:03:01.86    \nframe=   77 fps=0.4 q=37.8 size=    1280KiB time=00:00:01.50 bitrate=6990.7kbits/s speed=0.00822x elapsed=0:03:02.37    \nframe=   77 fps=0.4 q=37.8 size=    1280KiB time=00:00:01.50 bitrate=6990.7kbits/s speed=0.0082x elapsed=0:03:02.90    \nframe=   77 fps=0.4 q=37.8 size=    1280KiB time=00:00:01.50 bitrate=6990.7kbits/s speed=0.00818x elapsed=0:03:03.44    \nframe=   77 fps=0.4 q=37.8 size=    1280KiB time=00:00:01.50 bitrate=6990.7kbits/s speed=0.00815x elapsed=0:03:03.95    \nframe=   78 fps=0.4 q=33.0 size=    1280KiB time=00:00:01.52 bitrate=6898.8kbits/s speed=0.00824x elapsed=0:03:04.49    \nframe=   78 fps=0.4 q=33.0 size=    1280KiB time=00:00:01.52 bitrate=6898.8kbits/s speed=0.00822x elapsed=0:03:05.01    \nframe=   79 fps=0.4 q=35.3 size=    1280KiB time=00:00:01.54 bitrate=6809.2kbits/s speed=0.0083x elapsed=0:03:05.53    \nframe=   79 fps=0.4 q=35.3 size=    1280KiB time=00:00:01.54 bitrate=6809.2kbits/s speed=0.00828x elapsed=0:03:06.05    \nframe=   79 fps=0.4 q=35.3 size=    1280KiB time=00:00:01.54 bitrate=6809.2kbits/s speed=0.00825x elapsed=0:03:06.58    \nframe=   79 fps=0.4 q=35.3 size=    1280KiB time=00:00:01.54 bitrate=6809.2kbits/s speed=0.00823x elapsed=0:03:07.13    \nframe=   79 fps=0.4 q=35.3 size=    1280KiB time=00:00:01.54 bitrate=6809.2kbits/s speed=0.00821x elapsed=0:03:07.68    \nframe=   79 fps=0.4 q=35.3 size=    1280KiB time=00:00:01.54 bitrate=6809.2kbits/s speed=0.00818x elapsed=0:03:08.20    \nframe=   79 fps=0.4 q=35.3 size=    1280KiB time=00:00:01.54 bitrate=6809.2kbits/s speed=0.00816x elapsed=0:03:08.72    \nframe=   79 fps=0.4 q=35.3 size=    1280KiB time=00:00:01.54 bitrate=6809.2kbits/s speed=0.00814x elapsed=0:03:09.26    \nframe=   80 fps=0.4 q=37.7 size=    1536KiB time=00:00:01.56 bitrate=8066.2kbits/s speed=0.00822x elapsed=0:03:09.80    \nframe=   80 fps=0.4 q=37.7 size=    1536KiB time=00:00:01.56 bitrate=8066.2kbits/s speed=0.0082x elapsed=0:03:10.34    \nframe=   80 fps=0.4 q=37.7 size=    1536KiB time=00:00:01.56 bitrate=8066.2kbits/s speed=0.00817x elapsed=0:03:10.87    \nframe=   81 fps=0.4 q=37.7 size=    1536KiB time=00:00:01.58 bitrate=7964.1kbits/s speed=0.00825x elapsed=0:03:11.40    \nframe=   81 fps=0.4 q=37.7 size=    1536KiB time=00:00:01.58 bitrate=7964.1kbits/s speed=0.00823x elapsed=0:03:11.94    \nframe=   82 fps=0.4 q=32.8 size=    1536KiB time=00:00:01.60 bitrate=7864.5kbits/s speed=0.00831x elapsed=0:03:12.46    \nframe=   83 fps=0.4 q=35.2 size=    1536KiB time=00:00:01.62 bitrate=7767.4kbits/s speed=0.0084x elapsed=0:03:12.96    \nframe=   83 fps=0.4 q=35.2 size=    1536KiB time=00:00:01.62 bitrate=7767.4kbits/s speed=0.00837x elapsed=0:03:13.48    \nframe=   83 fps=0.4 q=35.2 size=    1536KiB time=00:00:01.62 bitrate=7767.4kbits/s speed=0.00835x elapsed=0:03:14.00    \nframe=   83 fps=0.4 q=35.2 size=    1536KiB time=00:00:01.62 bitrate=7767.4kbits/s speed=0.00833x elapsed=0:03:14.52    \nframe=   83 fps=0.4 q=35.2 size=    1536KiB time=00:00:01.62 bitrate=7767.4kbits/s speed=0.00831x elapsed=0:03:15.04    \nframe=   84 fps=0.4 q=37.5 size=    1536KiB time=00:00:01.64 bitrate=7672.7kbits/s speed=0.00839x elapsed=0:03:15.57    \nframe=   84 fps=0.4 q=37.5 size=    1536KiB time=00:00:01.64 bitrate=7672.7kbits/s speed=0.00836x elapsed=0:03:16.08    \nframe=   85 fps=0.4 q=37.5 size=    1536KiB time=00:00:01.66 bitrate=7580.3kbits/s speed=0.00844x elapsed=0:03:16.59    \nframe=   85 fps=0.4 q=37.5 size=    1536KiB time=00:00:01.66 bitrate=7580.3kbits/s speed=0.00842x elapsed=0:03:17.10    \nframe=   86 fps=0.4 q=32.6 size=    1536KiB time=00:00:01.68 bitrate=7490.0kbits/s speed=0.0085x elapsed=0:03:17.64    \nframe=   87 fps=0.4 q=34.8 size=    1536KiB time=00:00:01.70 bitrate=7401.9kbits/s speed=0.00858x elapsed=0:03:18.16    \nframe=   87 fps=0.4 q=34.8 size=    1536KiB time=00:00:01.70 bitrate=7401.9kbits/s speed=0.00856x elapsed=0:03:18.67    \nframe=   87 fps=0.4 q=34.8 size=    1536KiB time=00:00:01.70 bitrate=7401.9kbits/s speed=0.00853x elapsed=0:03:19.19    \nframe=   87 fps=0.4 q=34.8 size=    1536KiB time=00:00:01.70 bitrate=7401.9kbits/s speed=0.00851x elapsed=0:03:19.71    \nframe=   87 fps=0.4 q=34.8 size=    1536KiB time=00:00:01.70 bitrate=7401.9kbits/s speed=0.00849x elapsed=0:03:20.23    \nframe=   87 fps=0.4 q=34.8 size=    1536KiB time=00:00:01.70 bitrate=7401.9kbits/s speed=0.00847x elapsed=0:03:20.75    \nframe=   88 fps=0.4 q=37.3 size=    1536KiB time=00:00:01.72 bitrate=7315.9kbits/s speed=0.00855x elapsed=0:03:21.27    \nframe=   88 fps=0.4 q=37.3 size=    1536KiB time=00:00:01.72 bitrate=7315.9kbits/s speed=0.00852x elapsed=0:03:21.78    \nframe=   88 fps=0.4 q=37.3 size=    1536KiB time=00:00:01.72 bitrate=7315.9kbits/s speed=0.0085x elapsed=0:03:22.30    \nframe=   89 fps=0.4 q=37.4 size=    1536KiB time=00:00:01.74 bitrate=7231.8kbits/s speed=0.00858x elapsed=0:03:22.82    \nframe=   90 fps=0.4 q=32.4 size=    1536KiB time=00:00:01.76 bitrate=7149.6kbits/s speed=0.00866x elapsed=0:03:23.34    \nframe=   90 fps=0.4 q=32.4 size=    1536KiB time=00:00:01.76 bitrate=7149.6kbits/s speed=0.00863x elapsed=0:03:23.87    \nframe=   90 fps=0.4 q=32.4 size=    1536KiB time=00:00:01.76 bitrate=7149.6kbits/s speed=0.00861x elapsed=0:03:24.38    \nframe=   91 fps=0.4 q=34.9 size=    1536KiB time=00:00:01.78 bitrate=7069.2kbits/s speed=0.00869x elapsed=0:03:24.92    \nframe=   91 fps=0.4 q=34.9 size=    1536KiB time=00:00:01.78 bitrate=7069.2kbits/s speed=0.00866x elapsed=0:03:25.44    \nframe=   91 fps=0.4 q=34.9 size=    1536KiB time=00:00:01.78 bitrate=7069.2kbits/s speed=0.00864x elapsed=0:03:25.97    \nframe=   91 fps=0.4 q=34.9 size=    1536KiB time=00:00:01.78 bitrate=7069.2kbits/s speed=0.00862x elapsed=0:03:26.48    \nframe=   91 fps=0.4 q=34.9 size=    1536KiB time=00:00:01.78 bitrate=7069.2kbits/s speed=0.0086x elapsed=0:03:27.00    \nframe=   91 fps=0.4 q=34.9 size=    1536KiB time=00:00:01.78 bitrate=7069.2kbits/s speed=0.00858x elapsed=0:03:27.52    \nframe=   91 fps=0.4 q=34.9 size=    1536KiB time=00:00:01.78 bitrate=7069.2kbits/s speed=0.00856x elapsed=0:03:28.03    \nframe=   92 fps=0.4 q=37.4 size=    1536KiB time=00:00:01.80 bitrate=6990.7kbits/s speed=0.00863x elapsed=0:03:28.55    \nframe=   92 fps=0.4 q=37.4 size=    1536KiB time=00:00:01.80 bitrate=6990.7kbits/s speed=0.00861x elapsed=0:03:29.11    \nframe=   92 fps=0.4 q=37.4 size=    1536KiB time=00:00:01.80 bitrate=6990.7kbits/s speed=0.00859x elapsed=0:03:29.64    \nframe=   92 fps=0.4 q=37.4 size=    1536KiB time=00:00:01.80 bitrate=6990.7kbits/s speed=0.00856x elapsed=0:03:30.19    \nframe=   93 fps=0.4 q=37.4 size=    1536KiB time=00:00:01.82 bitrate=6913.9kbits/s speed=0.00864x elapsed=0:03:30.74    \nframe=   94 fps=0.4 q=31.8 size=    1536KiB time=00:00:01.84 bitrate=6838.7kbits/s speed=0.00871x elapsed=0:03:31.27    \nframe=   94 fps=0.4 q=31.8 size=    1536KiB time=00:00:01.84 bitrate=6838.7kbits/s speed=0.00869x elapsed=0:03:31.81    \nframe=   94 fps=0.4 q=31.8 size=    1536KiB time=00:00:01.84 bitrate=6838.7kbits/s speed=0.00867x elapsed=0:03:32.32    \nframe=   94 fps=0.4 q=31.8 size=    1536KiB time=00:00:01.84 bitrate=6838.7kbits/s speed=0.00864x elapsed=0:03:32.85    \nframe=   95 fps=0.4 q=36.1 size=    1792KiB time=00:00:01.86 bitrate=7892.7kbits/s speed=0.00872x elapsed=0:03:33.38    \nframe=   96 fps=0.4 q=37.3 size=    1792KiB time=00:00:01.88 bitrate=7808.7kbits/s speed=0.00879x elapsed=0:03:33.90    \nframe=   96 fps=0.4 q=37.3 size=    1792KiB time=00:00:01.88 bitrate=7808.7kbits/s speed=0.00877x elapsed=0:03:34.42    \nframe=   96 fps=0.4 q=37.3 size=    1792KiB time=00:00:01.88 bitrate=7808.7kbits/s speed=0.00875x elapsed=0:03:34.97    \nframe=   96 fps=0.4 q=37.3 size=    1792KiB time=00:00:01.88 bitrate=7808.7kbits/s speed=0.00872x elapsed=0:03:35.51    \nframe=   96 fps=0.4 q=37.3 size=    1792KiB time=00:00:01.88 bitrate=7808.7kbits/s speed=0.0087x elapsed=0:03:36.03    \nframe=   97 fps=0.4 q=37.4 size=    1792KiB time=00:00:01.90 bitrate=7726.5kbits/s speed=0.00877x elapsed=0:03:36.54    \nframe=   97 fps=0.4 q=37.4 size=    1792KiB time=00:00:01.90 bitrate=7726.5kbits/s speed=0.00875x elapsed=0:03:37.09    \nframe=   97 fps=0.4 q=37.4 size=    1792KiB time=00:00:01.90 bitrate=7726.5kbits/s speed=0.00873x elapsed=0:03:37.62    \nframe=   97 fps=0.4 q=37.4 size=    1792KiB time=00:00:01.90 bitrate=7726.5kbits/s speed=0.00871x elapsed=0:03:38.15    \nframe=   97 fps=0.4 q=37.4 size=    1792KiB time=00:00:01.90 bitrate=7726.5kbits/s speed=0.00869x elapsed=0:03:38.67    \nframe=   97 fps=0.4 q=37.4 size=    1792KiB time=00:00:01.90 bitrate=7726.5kbits/s speed=0.00867x elapsed=0:03:39.21    \nframe=   97 fps=0.4 q=37.4 size=    1792KiB time=00:00:01.90 bitrate=7726.5kbits/s speed=0.00865x elapsed=0:03:39.74    \nframe=   98 fps=0.4 q=37.4 size=    1792KiB time=00:00:01.92 bitrate=7646.1kbits/s speed=0.00872x elapsed=0:03:40.26    \nframe=   98 fps=0.4 q=37.4 size=    1792KiB time=00:00:01.92 bitrate=7646.1kbits/s speed=0.0087x elapsed=0:03:40.78    \nframe=   98 fps=0.4 q=37.4 size=    1792KiB time=00:00:01.92 bitrate=7646.1kbits/s speed=0.00868x elapsed=0:03:41.30    \nframe=   99 fps=0.4 q=31.7 size=    1792KiB time=00:00:01.94 bitrate=7567.2kbits/s speed=0.00875x elapsed=0:03:41.82    \nframe=  100 fps=0.4 q=32.8 size=    1792KiB time=00:00:01.96 bitrate=7490.0kbits/s speed=0.00881x elapsed=0:03:42.35    \nframe=  101 fps=0.5 q=37.7 size=    1792KiB time=00:00:01.98 bitrate=7414.4kbits/s speed=0.00888x elapsed=0:03:42.86    \nframe=  101 fps=0.5 q=37.7 size=    1792KiB time=00:00:01.98 bitrate=7414.4kbits/s speed=0.00886x elapsed=0:03:43.40    \nframe=  102 fps=0.5 q=37.8 size=    1792KiB time=00:00:01.98 bitrate=7414.4kbits/s speed=0.00884x elapsed=0:03:43.94    \nframe=  102 fps=0.5 q=37.8 size=    1792KiB time=00:00:02.00 bitrate=7340.2kbits/s speed=0.00891x elapsed=0:03:44.46    \nframe=  102 fps=0.5 q=37.8 size=    1792KiB time=00:00:02.00 bitrate=7340.2kbits/s speed=0.00889x elapsed=0:03:44.99    \nframe=  102 fps=0.5 q=37.8 size=    1792KiB time=00:00:02.00 bitrate=7340.2kbits/s speed=0.00887x elapsed=0:03:45.52    \nframe=  103 fps=0.5 q=38.1 size=    1792KiB time=00:00:02.02 bitrate=7267.5kbits/s speed=0.00894x elapsed=0:03:46.04    \nframe=  104 fps=0.5 q=31.9 size=    1792KiB time=00:00:02.04 bitrate=7196.3kbits/s speed=0.009x elapsed=0:03:46.58    \nframe=  104 fps=0.5 q=31.9 size=    1792KiB time=00:00:02.04 bitrate=7196.3kbits/s speed=0.00898x elapsed=0:03:47.15    \nframe=  105 fps=0.5 q=34.9 size=    2048KiB time=00:00:02.06 bitrate=8144.5kbits/s speed=0.00905x elapsed=0:03:47.69    \nframe=  106 fps=0.5 q=37.8 size=    2048KiB time=00:00:02.08 bitrate=8066.1kbits/s speed=0.00911x elapsed=0:03:48.24    \nframe=  106 fps=0.5 q=37.8 size=    2048KiB time=00:00:02.08 bitrate=8066.1kbits/s speed=0.00909x elapsed=0:03:48.76    \nframe=  106 fps=0.5 q=37.8 size=    2048KiB time=00:00:02.08 bitrate=8066.1kbits/s speed=0.00907x elapsed=0:03:49.30    \nframe=  106 fps=0.5 q=37.8 size=    2048KiB time=00:00:02.08 bitrate=8066.1kbits/s speed=0.00905x elapsed=0:03:49.87    \nframe=  107 fps=0.5 q=38.0 size=    2048KiB time=00:00:02.10 bitrate=7989.3kbits/s speed=0.00911x elapsed=0:03:50.39    \nframe=  108 fps=0.5 q=38.4 size=    2048KiB time=00:00:02.12 bitrate=7913.9kbits/s speed=0.00918x elapsed=0:03:50.92    \nframe=  108 fps=0.5 q=38.4 size=    2048KiB time=00:00:02.12 bitrate=7913.9kbits/s speed=0.00916x elapsed=0:03:51.50    \nframe=  108 fps=0.5 q=38.4 size=    2048KiB time=00:00:02.12 bitrate=7913.9kbits/s speed=0.00913x elapsed=0:03:52.08    \nframe=  108 fps=0.5 q=38.4 size=    2048KiB time=00:00:02.12 bitrate=7913.9kbits/s speed=0.00911x elapsed=0:03:52.62    \nframe=  109 fps=0.5 q=31.8 size=    2048KiB time=00:00:02.14 bitrate=7840.0kbits/s speed=0.00918x elapsed=0:03:53.15    \nframe=  109 fps=0.5 q=31.8 size=    2048KiB time=00:00:02.14 bitrate=7840.0kbits/s speed=0.00916x elapsed=0:03:53.67    \nframe=  110 fps=0.5 q=35.5 size=    2048KiB time=00:00:02.16 bitrate=7767.4kbits/s speed=0.00922x elapsed=0:03:54.18    \nframe=  110 fps=0.5 q=35.5 size=    2048KiB time=00:00:02.16 bitrate=7767.4kbits/s speed=0.0092x elapsed=0:03:54.70    \nframe=  110 fps=0.5 q=35.5 size=    2048KiB time=00:00:02.16 bitrate=7767.4kbits/s speed=0.00918x elapsed=0:03:55.22    \nframe=  111 fps=0.5 q=38.2 size=    2048KiB time=00:00:02.18 bitrate=7696.1kbits/s speed=0.00925x elapsed=0:03:55.73    \nframe=  112 fps=0.5 q=38.5 size=    2048KiB time=00:00:02.20 bitrate=7626.2kbits/s speed=0.00931x elapsed=0:03:56.25    \nframe=  113 fps=0.5 q=31.9 size=    2048KiB time=00:00:02.22 bitrate=7557.5kbits/s speed=0.00938x elapsed=0:03:56.79    \nframe=  113 fps=0.5 q=31.9 size=    2048KiB time=00:00:02.22 bitrate=7557.5kbits/s speed=0.00935x elapsed=0:03:57.31    \nframe=  114 fps=0.5 q=35.5 size=    2048KiB time=00:00:02.24 bitrate=7490.0kbits/s speed=0.00942x elapsed=0:03:57.83    \nframe=  114 fps=0.5 q=35.5 size=    2048KiB time=00:00:02.24 bitrate=7490.0kbits/s speed=0.0094x elapsed=0:03:58.35    \nframe=  115 fps=0.5 q=38.4 size=    2048KiB time=00:00:02.26 bitrate=7423.7kbits/s speed=0.00946x elapsed=0:03:58.86    \nframe=  115 fps=0.5 q=38.4 size=    2048KiB time=00:00:02.26 bitrate=7423.7kbits/s speed=0.00944x elapsed=0:03:59.38    \nframe=  116 fps=0.5 q=38.5 size=    2048KiB time=00:00:02.28 bitrate=7358.6kbits/s speed=0.0095x elapsed=0:03:59.89    \nframe=  117 fps=0.5 q=31.9 size=    2048KiB time=00:00:02.30 bitrate=7294.6kbits/s speed=0.00957x elapsed=0:04:00.42    \nframe=  117 fps=0.5 q=31.9 size=    2048KiB time=00:00:02.30 bitrate=7294.6kbits/s speed=0.00955x elapsed=0:04:00.94    \nframe=  118 fps=0.5 q=36.0 size=    2304KiB time=00:00:02.32 bitrate=8135.7kbits/s speed=0.00961x elapsed=0:04:01.45    \nframe=  119 fps=0.5 q=38.5 size=    2304KiB time=00:00:02.34 bitrate=8066.1kbits/s speed=0.00967x elapsed=0:04:01.98    \nframe=  119 fps=0.5 q=38.5 size=    2304KiB time=00:00:02.34 bitrate=8066.1kbits/s speed=0.00965x elapsed=0:04:02.52    \nframe=  119 fps=0.5 q=38.5 size=    2304KiB time=00:00:02.34 bitrate=8066.1kbits/s speed=0.00963x elapsed=0:04:03.04    \nframe=  121 fps=0.5 q=31.8 size=    2304KiB time=00:00:02.38 bitrate=7930.6kbits/s speed=0.00977x elapsed=0:04:03.56    \nframe=  121 fps=0.5 q=31.8 size=    2304KiB time=00:00:02.38 bitrate=7930.6kbits/s speed=0.00975x elapsed=0:04:04.09    \nframe=  122 fps=0.5 q=36.0 size=    2304KiB time=00:00:02.40 bitrate=7864.5kbits/s speed=0.00981x elapsed=0:04:04.60    \nframe=  123 fps=0.5 q=38.5 size=    2304KiB time=00:00:02.42 bitrate=7799.5kbits/s speed=0.00987x elapsed=0:04:05.13    \nframe=  123 fps=0.5 q=38.5 size=    2304KiB time=00:00:02.42 bitrate=7799.5kbits/s speed=0.00985x elapsed=0:04:05.63    \nframe=  124 fps=0.5 q=38.5 size=    2304KiB time=00:00:02.44 bitrate=7735.5kbits/s speed=0.00991x elapsed=0:04:06.16    \nframe=  125 fps=0.5 q=31.9 size=    2304KiB time=00:00:02.46 bitrate=7672.7kbits/s speed=0.00997x elapsed=0:04:06.67    \nframe=  126 fps=0.5 q=36.1 size=    2304KiB time=00:00:02.48 bitrate=7610.8kbits/s speed=0.01x elapsed=0:04:07.19    \nframe=  126 fps=0.5 q=36.1 size=    2304KiB time=00:00:02.48 bitrate=7610.8kbits/s speed=0.01x elapsed=0:04:07.71    \nframe=  127 fps=0.5 q=38.6 size=    2304KiB time=00:00:02.50 bitrate=7549.9kbits/s speed=0.0101x elapsed=0:04:08.24    \nframe=  127 fps=0.5 q=38.6 size=    2304KiB time=00:00:02.50 bitrate=7549.9kbits/s speed=0.01x elapsed=0:04:08.78    \nframe=  128 fps=0.5 q=38.8 size=    2304KiB time=00:00:02.52 bitrate=7490.0kbits/s speed=0.0101x elapsed=0:04:09.30    \nframe=  129 fps=0.5 q=32.0 size=    2304KiB time=00:00:02.54 bitrate=7431.0kbits/s speed=0.0102x elapsed=0:04:09.80    \nframe=  130 fps=0.5 q=37.3 size=    2560KiB time=00:00:02.56 bitrate=8192.1kbits/s speed=0.0102x elapsed=0:04:10.33    \nframe=  131 fps=0.5 q=38.4 size=    2560KiB time=00:00:02.58 bitrate=8128.6kbits/s speed=0.0103x elapsed=0:04:10.85    \nframe=  132 fps=0.5 q=38.7 size=    2560KiB time=00:00:02.60 bitrate=8066.1kbits/s speed=0.0103x elapsed=0:04:11.36    \nframe=  132 fps=0.5 q=38.7 size=    2560KiB time=00:00:02.60 bitrate=8066.1kbits/s speed=0.0103x elapsed=0:04:11.88    \nframe=  134 fps=0.5 q=32.0 size=    2560KiB time=00:00:02.64 bitrate=7943.9kbits/s speed=0.0105x elapsed=0:04:12.39    \nframe=  135 fps=0.5 q=36.0 size=    2560KiB time=00:00:02.66 bitrate=7884.2kbits/s speed=0.0105x elapsed=0:04:12.92    \nframe=  135 fps=0.5 q=36.0 size=    2560KiB time=00:00:02.66 bitrate=7884.2kbits/s speed=0.0105x elapsed=0:04:13.44    \nframe=  136 fps=0.5 q=38.7 size=    2560KiB time=00:00:02.68 bitrate=7825.3kbits/s speed=0.0106x elapsed=0:04:13.96    \nframe=  136 fps=0.5 q=38.7 size=    2560KiB time=00:00:02.68 bitrate=7825.3kbits/s speed=0.0105x elapsed=0:04:14.49    \nframe=  137 fps=0.5 q=38.4 size=    2560KiB time=00:00:02.70 bitrate=7767.4kbits/s speed=0.0106x elapsed=0:04:15.01    \nframe=  137 fps=0.5 q=38.4 size=    2560KiB time=00:00:02.70 bitrate=7767.4kbits/s speed=0.0106x elapsed=0:04:15.53    \nframe=  138 fps=0.5 q=32.1 size=    2560KiB time=00:00:02.72 bitrate=7710.2kbits/s speed=0.0106x elapsed=0:04:16.06    \nframe=  138 fps=0.5 q=32.1 size=    2560KiB time=00:00:02.72 bitrate=7710.2kbits/s speed=0.0106x elapsed=0:04:16.62    \nframe=  138 fps=0.5 q=32.1 size=    2560KiB time=00:00:02.72 bitrate=7710.2kbits/s speed=0.0106x elapsed=0:04:17.16    \nframe=  138 fps=0.5 q=32.1 size=    2560KiB time=00:00:02.72 bitrate=7710.2kbits/s speed=0.0106x elapsed=0:04:17.69    \nframe=  138 fps=0.5 q=32.1 size=    2560KiB time=00:00:02.72 bitrate=7710.2kbits/s speed=0.0105x elapsed=0:04:18.20    \nframe=  139 fps=0.5 q=35.9 size=    2560KiB time=00:00:02.74 bitrate=7654.0kbits/s speed=0.0106x elapsed=0:04:18.74    \nframe=  139 fps=0.5 q=35.9 size=    2560KiB time=00:00:02.74 bitrate=7654.0kbits/s speed=0.0106x elapsed=0:04:19.26    \nframe=  139 fps=0.5 q=35.9 size=    2560KiB time=00:00:02.74 bitrate=7654.0kbits/s speed=0.0105x elapsed=0:04:19.79    \nframe=  139 fps=0.5 q=35.9 size=    2560KiB time=00:00:02.74 bitrate=7654.0kbits/s speed=0.0105x elapsed=0:04:20.29    \nframe=  140 fps=0.5 q=38.7 size=    2560KiB time=00:00:02.76 bitrate=7598.5kbits/s speed=0.0106x elapsed=0:04:20.83    \nframe=  140 fps=0.5 q=38.7 size=    2560KiB time=00:00:02.76 bitrate=7598.5kbits/s speed=0.0106x elapsed=0:04:21.37    \nframe=  140 fps=0.5 q=38.7 size=    2560KiB time=00:00:02.76 bitrate=7598.5kbits/s speed=0.0105x elapsed=0:04:21.90    \nframe=  141 fps=0.5 q=38.6 size=    2560KiB time=00:00:02.78 bitrate=7543.8kbits/s speed=0.0106x elapsed=0:04:22.42    \nframe=  141 fps=0.5 q=38.6 size=    2560KiB time=00:00:02.78 bitrate=7543.8kbits/s speed=0.0106x elapsed=0:04:22.95    \nframe=  141 fps=0.5 q=38.6 size=    2560KiB time=00:00:02.78 bitrate=7543.8kbits/s speed=0.0106x elapsed=0:04:23.47    \nframe=  141 fps=0.5 q=38.6 size=    2560KiB time=00:00:02.78 bitrate=7543.8kbits/s speed=0.0105x elapsed=0:04:23.98    \nframe=  141 fps=0.5 q=38.6 size=    2560KiB time=00:00:02.78 bitrate=7543.8kbits/s speed=0.0105x elapsed=0:04:24.53    \nframe=  141 fps=0.5 q=38.6 size=    2560KiB time=00:00:02.78 bitrate=7543.8kbits/s speed=0.0105x elapsed=0:04:25.08    \nframe=  142 fps=0.5 q=32.1 size=    2816KiB time=00:00:02.80 bitrate=8238.9kbits/s speed=0.0105x elapsed=0:04:25.64    \nframe=  142 fps=0.5 q=32.1 size=    2816KiB time=00:00:02.80 bitrate=8238.9kbits/s speed=0.0105x elapsed=0:04:26.26    \nframe=  142 fps=0.5 q=32.1 size=    2816KiB time=00:00:02.80 bitrate=8238.9kbits/s speed=0.0105x elapsed=0:04:26.82    \nframe=  142 fps=0.5 q=32.1 size=    2816KiB time=00:00:02.80 bitrate=8238.9kbits/s speed=0.0105x elapsed=0:04:27.42    \nframe=  142 fps=0.5 q=32.1 size=    2816KiB time=00:00:02.80 bitrate=8238.9kbits/s speed=0.0104x elapsed=0:04:27.97    \nframe=  142 fps=0.5 q=32.1 size=    2816KiB time=00:00:02.80 bitrate=8238.9kbits/s speed=0.0104x elapsed=0:04:28.52    \nframe=  143 fps=0.5 q=37.3 size=    2816KiB time=00:00:02.82 bitrate=8180.5kbits/s speed=0.0105x elapsed=0:04:29.05    \nframe=  143 fps=0.5 q=37.3 size=    2816KiB time=00:00:02.82 bitrate=8180.5kbits/s speed=0.0105x elapsed=0:04:29.61    \nframe=  143 fps=0.5 q=37.3 size=    2816KiB time=00:00:02.82 bitrate=8180.5kbits/s speed=0.0104x elapsed=0:04:30.13    \nframe=  143 fps=0.5 q=37.3 size=    2816KiB time=00:00:02.82 bitrate=8180.5kbits/s speed=0.0104x elapsed=0:04:30.64    \nframe=  144 fps=0.5 q=38.5 size=    2816KiB time=00:00:02.84 bitrate=8122.9kbits/s speed=0.0105x elapsed=0:04:31.16    \nframe=  144 fps=0.5 q=38.5 size=    2816KiB time=00:00:02.84 bitrate=8122.9kbits/s speed=0.0105x elapsed=0:04:31.69    \nframe=  144 fps=0.5 q=38.5 size=    2816KiB time=00:00:02.84 bitrate=8122.9kbits/s speed=0.0104x elapsed=0:04:32.20    \nframe=  145 fps=0.5 q=38.7 size=    2816KiB time=00:00:02.86 bitrate=8066.1kbits/s speed=0.0105x elapsed=0:04:32.75    \nframe=  146 fps=0.5 q=38.9 size=    2816KiB time=00:00:02.88 bitrate=8010.1kbits/s speed=0.0105x elapsed=0:04:33.30    \nframe=  146 fps=0.5 q=38.9 size=    2816KiB time=00:00:02.88 bitrate=8010.1kbits/s speed=0.0105x elapsed=0:04:33.81    \nframe=  146 fps=0.5 q=38.9 size=    2816KiB time=00:00:02.88 bitrate=8010.1kbits/s speed=0.0105x elapsed=0:04:34.33    \nframe=  147 fps=0.5 q=32.0 size=    2816KiB time=00:00:02.90 bitrate=7954.8kbits/s speed=0.0106x elapsed=0:04:34.85    \nframe=  147 fps=0.5 q=32.0 size=    2816KiB time=00:00:02.90 bitrate=7954.8kbits/s speed=0.0105x elapsed=0:04:35.37    \nframe=  147 fps=0.5 q=32.0 size=    2816KiB time=00:00:02.90 bitrate=7954.8kbits/s speed=0.0105x elapsed=0:04:35.89    \nframe=  148 fps=0.5 q=33.2 size=    2816KiB time=00:00:02.92 bitrate=7900.4kbits/s speed=0.0106x elapsed=0:04:36.40    \nframe=  148 fps=0.5 q=33.2 size=    2816KiB time=00:00:02.92 bitrate=7900.4kbits/s speed=0.0105x elapsed=0:04:36.92    \nframe=  149 fps=0.5 q=38.5 size=    2816KiB time=00:00:02.94 bitrate=7846.6kbits/s speed=0.0106x elapsed=0:04:37.44    \nframe=  149 fps=0.5 q=38.5 size=    2816KiB time=00:00:02.94 bitrate=7846.6kbits/s speed=0.0106x elapsed=0:04:37.96    \nframe=  149 fps=0.5 q=38.5 size=    2816KiB time=00:00:02.94 bitrate=7846.6kbits/s speed=0.0106x elapsed=0:04:38.47    \nframe=  150 fps=0.5 q=38.7 size=    2816KiB time=00:00:02.96 bitrate=7793.6kbits/s speed=0.0106x elapsed=0:04:38.99    \nframe=  150 fps=0.5 q=38.7 size=    2816KiB time=00:00:02.96 bitrate=7793.6kbits/s speed=0.0106x elapsed=0:04:39.54    \nframe=  151 fps=0.5 q=38.9 size=    2816KiB time=00:00:02.98 bitrate=7741.3kbits/s speed=0.0106x elapsed=0:04:40.07    \nframe=  151 fps=0.5 q=38.9 size=    2816KiB time=00:00:02.98 bitrate=7741.3kbits/s speed=0.0106x elapsed=0:04:40.59    \nframe=  151 fps=0.5 q=38.9 size=    2816KiB time=00:00:02.98 bitrate=7741.3kbits/s speed=0.0106x elapsed=0:04:41.14    \nframe=  152 fps=0.5 q=32.2 size=    2816KiB time=00:00:03.00 bitrate=7689.7kbits/s speed=0.0107x elapsed=0:04:41.67    \nframe=  153 fps=0.5 q=37.3 size=    3072KiB time=00:00:03.02 bitrate=8333.2kbits/s speed=0.0107x elapsed=0:04:42.22    \nframe=  153 fps=0.5 q=37.3 size=    3072KiB time=00:00:03.02 bitrate=8333.2kbits/s speed=0.0107x elapsed=0:04:42.73    \nframe=  153 fps=0.5 q=37.3 size=    3072KiB time=00:00:03.02 bitrate=8333.2kbits/s speed=0.0107x elapsed=0:04:43.26    \nframe=  153 fps=0.5 q=37.3 size=    3072KiB time=00:00:03.02 bitrate=8333.2kbits/s speed=0.0106x elapsed=0:04:43.82    \nframe=  153 fps=0.5 q=37.3 size=    3072KiB time=00:00:03.02 bitrate=8333.2kbits/s speed=0.0106x elapsed=0:04:44.34    \nframe=  154 fps=0.5 q=38.7 size=    3072KiB time=00:00:03.04 bitrate=8278.3kbits/s speed=0.0107x elapsed=0:04:44.86    \nframe=  155 fps=0.5 q=39.0 size=    3072KiB time=00:00:03.06 bitrate=8224.2kbits/s speed=0.0107x elapsed=0:04:45.37    \nframe=  155 fps=0.5 q=39.0 size=    3072KiB time=00:00:03.06 bitrate=8224.2kbits/s speed=0.0107x elapsed=0:04:45.91    \nframe=  155 fps=0.5 q=39.0 size=    3072KiB time=00:00:03.06 bitrate=8224.2kbits/s speed=0.0107x elapsed=0:04:46.43    \nframe=  155 fps=0.5 q=39.0 size=    3072KiB time=00:00:03.06 bitrate=8224.2kbits/s speed=0.0107x elapsed=0:04:46.93    \nframe=  155 fps=0.5 q=39.0 size=    3072KiB time=00:00:03.06 bitrate=8224.2kbits/s speed=0.0106x elapsed=0:04:47.49    \nframe=  156 fps=0.5 q=39.0 size=    3072KiB time=00:00:03.08 bitrate=8170.8kbits/s speed=0.0107x elapsed=0:04:48.01    \nframe=  157 fps=0.5 q=32.1 size=    3072KiB time=00:00:03.10 bitrate=8118.1kbits/s speed=0.0107x elapsed=0:04:48.54    \nframe=  158 fps=0.5 q=36.2 size=    3072KiB time=00:00:03.12 bitrate=8066.1kbits/s speed=0.0108x elapsed=0:04:49.05    \nframe=  158 fps=0.5 q=36.2 size=    3072KiB time=00:00:03.12 bitrate=8066.1kbits/s speed=0.0108x elapsed=0:04:49.60    \nframe=  158 fps=0.5 q=36.2 size=    3072KiB time=00:00:03.12 bitrate=8066.1kbits/s speed=0.0108x elapsed=0:04:50.12    \nframe=  159 fps=0.5 q=38.9 size=    3072KiB time=00:00:03.14 bitrate=8014.7kbits/s speed=0.0108x elapsed=0:04:50.66    \nframe=  160 fps=0.5 q=38.9 size=    3072KiB time=00:00:03.16 bitrate=7964.0kbits/s speed=0.0109x elapsed=0:04:51.18    \nframe=  160 fps=0.5 q=38.9 size=    3072KiB time=00:00:03.16 bitrate=7964.0kbits/s speed=0.0108x elapsed=0:04:51.70    \nframe=  161 fps=0.6 q=32.2 size=    3072KiB time=00:00:03.18 bitrate=7913.9kbits/s speed=0.0109x elapsed=0:04:52.22    \nframe=  161 fps=0.5 q=32.2 size=    3072KiB time=00:00:03.18 bitrate=7913.9kbits/s speed=0.0109x elapsed=0:04:52.73    \nframe=  161 fps=0.5 q=32.2 size=    3072KiB time=00:00:03.18 bitrate=7913.9kbits/s speed=0.0108x elapsed=0:04:53.27    \nframe=  162 fps=0.6 q=36.2 size=    3072KiB time=00:00:03.20 bitrate=7864.4kbits/s speed=0.0109x elapsed=0:04:53.79    \nframe=  162 fps=0.6 q=36.2 size=    3072KiB time=00:00:03.20 bitrate=7864.4kbits/s speed=0.0109x elapsed=0:04:54.32    \nframe=  162 fps=0.5 q=36.2 size=    3072KiB time=00:00:03.20 bitrate=7864.4kbits/s speed=0.0109x elapsed=0:04:54.85    \nframe=  163 fps=0.6 q=39.1 size=    3072KiB time=00:00:03.22 bitrate=7815.6kbits/s speed=0.0109x elapsed=0:04:55.35    \nframe=  163 fps=0.6 q=39.1 size=    3072KiB time=00:00:03.22 bitrate=7815.6kbits/s speed=0.0109x elapsed=0:04:55.88    \nframe=  163 fps=0.5 q=39.1 size=    3072KiB time=00:00:03.22 bitrate=7815.6kbits/s speed=0.0109x elapsed=0:04:56.42    \nframe=  164 fps=0.6 q=39.2 size=    3072KiB time=00:00:03.24 bitrate=7767.3kbits/s speed=0.0109x elapsed=0:04:56.97    \nframe=  164 fps=0.6 q=39.2 size=    3072KiB time=00:00:03.24 bitrate=7767.3kbits/s speed=0.0109x elapsed=0:04:57.53    \nframe=  165 fps=0.6 q=32.2 size=    3072KiB time=00:00:03.26 bitrate=7719.7kbits/s speed=0.0109x elapsed=0:04:58.07    \nframe=  165 fps=0.6 q=32.2 size=    3072KiB time=00:00:03.26 bitrate=7719.7kbits/s speed=0.0109x elapsed=0:04:58.59    \nframe=  165 fps=0.6 q=32.2 size=    3072KiB time=00:00:03.26 bitrate=7719.7kbits/s speed=0.0109x elapsed=0:04:59.11    \nframe=  165 fps=0.6 q=32.2 size=    3072KiB time=00:00:03.26 bitrate=7719.7kbits/s speed=0.0109x elapsed=0:04:59.62    \nframe=  166 fps=0.6 q=36.4 size=    3328KiB time=00:00:03.28 bitrate=8312.0kbits/s speed=0.0109x elapsed=0:05:00.15    \nframe=  166 fps=0.6 q=36.4 size=    3328KiB time=00:00:03.28 bitrate=8312.0kbits/s speed=0.0109x elapsed=0:05:00.68    \nframe=  167 fps=0.6 q=39.1 size=    3328KiB time=00:00:03.30 bitrate=8261.6kbits/s speed=0.011x elapsed=0:05:01.21    \nframe=  167 fps=0.6 q=39.1 size=    3328KiB time=00:00:03.30 bitrate=8261.6kbits/s speed=0.0109x elapsed=0:05:01.74    \nframe=  167 fps=0.6 q=39.1 size=    3328KiB time=00:00:03.30 bitrate=8261.6kbits/s speed=0.0109x elapsed=0:05:02.30    \nframe=  167 fps=0.6 q=39.1 size=    3328KiB time=00:00:03.30 bitrate=8261.6kbits/s speed=0.0109x elapsed=0:05:02.81    \nframe=  169 fps=0.6 q=32.3 size=    3328KiB time=00:00:03.34 bitrate=8162.7kbits/s speed=0.011x elapsed=0:05:03.33    \nframe=  170 fps=0.6 q=36.5 size=    3328KiB time=00:00:03.36 bitrate=8114.1kbits/s speed=0.0111x elapsed=0:05:03.84    \nframe=  170 fps=0.6 q=36.5 size=    3328KiB time=00:00:03.36 bitrate=8114.1kbits/s speed=0.011x elapsed=0:05:04.38    \nframe=  170 fps=0.6 q=36.5 size=    3328KiB time=00:00:03.36 bitrate=8114.1kbits/s speed=0.011x elapsed=0:05:04.90    \nframe=  170 fps=0.6 q=36.5 size=    3328KiB time=00:00:03.36 bitrate=8114.1kbits/s speed=0.011x elapsed=0:05:05.48    \nframe=  172 fps=0.6 q=39.2 size=    3328KiB time=00:00:03.40 bitrate=8018.6kbits/s speed=0.0111x elapsed=0:05:06.02    \nframe=  172 fps=0.6 q=39.2 size=    3328KiB time=00:00:03.40 bitrate=8018.6kbits/s speed=0.0111x elapsed=0:05:06.54    \nframe=  172 fps=0.6 q=39.2 size=    3328KiB time=00:00:03.40 bitrate=8018.6kbits/s speed=0.0111x elapsed=0:05:07.06    \nframe=  173 fps=0.6 q=32.3 size=    3328KiB time=00:00:03.42 bitrate=7971.7kbits/s speed=0.0111x elapsed=0:05:07.59    \nframe=  174 fps=0.6 q=36.7 size=    3328KiB time=00:00:03.44 bitrate=7925.4kbits/s speed=0.0112x elapsed=0:05:08.10    \nframe=  174 fps=0.6 q=36.7 size=    3328KiB time=00:00:03.44 bitrate=7925.4kbits/s speed=0.0111x elapsed=0:05:08.63    \nframe=  174 fps=0.6 q=36.7 size=    3328KiB time=00:00:03.44 bitrate=7925.4kbits/s speed=0.0111x elapsed=0:05:09.15    \nframe=  176 fps=0.6 q=39.3 size=    3328KiB time=00:00:03.48 bitrate=7834.3kbits/s speed=0.0112x elapsed=0:05:09.67    \nframe=  177 fps=0.6 q=32.3 size=    3328KiB time=00:00:03.50 bitrate=7789.5kbits/s speed=0.0113x elapsed=0:05:10.19    \nframe=  177 fps=0.6 q=32.3 size=    3328KiB time=00:00:03.50 bitrate=7789.5kbits/s speed=0.0113x elapsed=0:05:10.72    \nframe=  178 fps=0.6 q=36.7 size=    3584KiB time=00:00:03.52 bitrate=8341.0kbits/s speed=0.0113x elapsed=0:05:11.24    \nframe=  178 fps=0.6 q=36.7 size=    3584KiB time=00:00:03.52 bitrate=8341.0kbits/s speed=0.0113x elapsed=0:05:11.76    \nframe=  178 fps=0.6 q=36.7 size=    3584KiB time=00:00:03.52 bitrate=8341.0kbits/s speed=0.0113x elapsed=0:05:12.29    \nframe=  178 fps=0.6 q=36.7 size=    3584KiB time=00:00:03.52 bitrate=8341.0kbits/s speed=0.0113x elapsed=0:05:12.82    \nframe=  178 fps=0.6 q=36.7 size=    3584KiB time=00:00:03.52 bitrate=8341.0kbits/s speed=0.0112x elapsed=0:05:13.35    \nframe=  178 fps=0.6 q=36.7 size=    3584KiB time=00:00:03.52 bitrate=8341.0kbits/s speed=0.0112x elapsed=0:05:13.89    \nframe=  179 fps=0.6 q=39.2 size=    3584KiB time=00:00:03.54 bitrate=8293.9kbits/s speed=0.0113x elapsed=0:05:14.45    \nframe=  179 fps=0.6 q=39.2 size=    3584KiB time=00:00:03.54 bitrate=8293.9kbits/s speed=0.0112x elapsed=0:05:14.98    \nframe=  179 fps=0.6 q=39.2 size=    3584KiB time=00:00:03.54 bitrate=8293.9kbits/s speed=0.0112x elapsed=0:05:15.55    \nframe=  180 fps=0.6 q=39.3 size=    3584KiB time=00:00:03.56 bitrate=8247.3kbits/s speed=0.0113x elapsed=0:05:16.08    \nframe=  180 fps=0.6 q=39.3 size=    3584KiB time=00:00:03.56 bitrate=8247.3kbits/s speed=0.0112x elapsed=0:05:16.59    \nframe=  180 fps=0.6 q=39.3 size=    3584KiB time=00:00:03.56 bitrate=8247.3kbits/s speed=0.0112x elapsed=0:05:17.10    \nframe=  181 fps=0.6 q=32.3 size=    3584KiB time=00:00:03.58 bitrate=8201.3kbits/s speed=0.0113x elapsed=0:05:17.63    \nframe=  182 fps=0.6 q=36.7 size=    3584KiB time=00:00:03.60 bitrate=8155.7kbits/s speed=0.0113x elapsed=0:05:18.16    \nframe=  182 fps=0.6 q=36.7 size=    3584KiB time=00:00:03.60 bitrate=8155.7kbits/s speed=0.0113x elapsed=0:05:18.68    \nframe=  182 fps=0.6 q=36.7 size=    3584KiB time=00:00:03.60 bitrate=8155.7kbits/s speed=0.0113x elapsed=0:05:19.21    \nframe=  183 fps=0.6 q=39.3 size=    3584KiB time=00:00:03.62 bitrate=8110.6kbits/s speed=0.0113x elapsed=0:05:19.74    \nframe=  184 fps=0.6 q=39.5 size=    3584KiB time=00:00:03.64 bitrate=8066.1kbits/s speed=0.0114x elapsed=0:05:20.25    \nframe=  186 fps=0.6 q=36.7 size=    3584KiB time=00:00:03.68 bitrate=7978.4kbits/s speed=0.0115x elapsed=0:05:20.78    \nframe=  186 fps=0.6 q=36.7 size=    3584KiB time=00:00:03.68 bitrate=7978.4kbits/s speed=0.0115x elapsed=0:05:21.29    \nframe=  186 fps=0.6 q=36.7 size=    3584KiB time=00:00:03.68 bitrate=7978.4kbits/s speed=0.0114x elapsed=0:05:21.81    \nframe=  187 fps=0.6 q=39.5 size=    3584KiB time=00:00:03.70 bitrate=7935.3kbits/s speed=0.0115x elapsed=0:05:22.36    \nframe=  187 fps=0.6 q=39.5 size=    3584KiB time=00:00:03.70 bitrate=7935.3kbits/s speed=0.0115x elapsed=0:05:22.89    \nframe=  188 fps=0.6 q=39.4 size=    3584KiB time=00:00:03.72 bitrate=7892.6kbits/s speed=0.0115x elapsed=0:05:23.42    \nframe=  188 fps=0.6 q=39.4 size=    3584KiB time=00:00:03.72 bitrate=7892.6kbits/s speed=0.0115x elapsed=0:05:23.95    \nframe=  189 fps=0.6 q=32.3 size=    3584KiB time=00:00:03.74 bitrate=7850.4kbits/s speed=0.0115x elapsed=0:05:24.49    \nframe=  189 fps=0.6 q=32.3 size=    3584KiB time=00:00:03.74 bitrate=7850.4kbits/s speed=0.0115x elapsed=0:05:25.02    \nframe=  190 fps=0.6 q=36.9 size=    3840KiB time=00:00:03.76 bitrate=8366.4kbits/s speed=0.0115x elapsed=0:05:25.55    \nframe=  190 fps=0.6 q=36.9 size=    3840KiB time=00:00:03.76 bitrate=8366.4kbits/s speed=0.0115x elapsed=0:05:26.08    \nframe=  191 fps=0.6 q=39.5 size=    3840KiB time=00:00:03.78 bitrate=8322.1kbits/s speed=0.0116x elapsed=0:05:26.61    \nframe=  192 fps=0.6 q=39.6 size=    3840KiB time=00:00:03.80 bitrate=8278.3kbits/s speed=0.0116x elapsed=0:05:27.13    \nframe=  192 fps=0.6 q=39.6 size=    3840KiB time=00:00:03.80 bitrate=8278.3kbits/s speed=0.0116x elapsed=0:05:27.65    \nframe=  192 fps=0.6 q=39.6 size=    3840KiB time=00:00:03.80 bitrate=8278.3kbits/s speed=0.0116x elapsed=0:05:28.18    \nframe=  192 fps=0.6 q=39.6 size=    3840KiB time=00:00:03.80 bitrate=8278.3kbits/s speed=0.0116x elapsed=0:05:28.68    \nframe=  193 fps=0.6 q=32.3 size=    3840KiB time=00:00:03.82 bitrate=8235.0kbits/s speed=0.0116x elapsed=0:05:29.20    \nframe=  194 fps=0.6 q=36.8 size=    3840KiB time=00:00:03.84 bitrate=8192.1kbits/s speed=0.0116x elapsed=0:05:29.73    \nframe=  194 fps=0.6 q=36.8 size=    3840KiB time=00:00:03.84 bitrate=8192.1kbits/s speed=0.0116x elapsed=0:05:30.26    \nframe=  195 fps=0.6 q=39.4 size=    3840KiB time=00:00:03.86 bitrate=8149.6kbits/s speed=0.0117x elapsed=0:05:30.80    \nframe=  197 fps=0.6 q=32.3 size=    3840KiB time=00:00:03.90 bitrate=8066.1kbits/s speed=0.0118x elapsed=0:05:31.37    \nframe=  197 fps=0.6 q=32.3 size=    3840KiB time=00:00:03.90 bitrate=8066.1kbits/s speed=0.0118x elapsed=0:05:31.90    \nframe=  198 fps=0.6 q=37.0 size=    3840KiB time=00:00:03.92 bitrate=8024.9kbits/s speed=0.0118x elapsed=0:05:32.43    \nframe=  198 fps=0.6 q=37.0 size=    3840KiB time=00:00:03.92 bitrate=8024.9kbits/s speed=0.0118x elapsed=0:05:32.95    \nframe=  200 fps=0.6 q=39.5 size=    3840KiB time=00:00:03.96 bitrate=7943.8kbits/s speed=0.0119x elapsed=0:05:33.47    \nframe=  201 fps=0.6 q=32.3 size=    3840KiB time=00:00:03.98 bitrate=7903.9kbits/s speed=0.0119x elapsed=0:05:34.01    \nframe=  202 fps=0.6 q=36.9 size=    4096KiB time=00:00:04.00 bitrate=8388.7kbits/s speed=0.012x elapsed=0:05:34.53    \nframe=  202 fps=0.6 q=36.9 size=    4096KiB time=00:00:04.00 bitrate=8388.7kbits/s speed=0.0119x elapsed=0:05:35.05    \nframe=  202 fps=0.6 q=36.9 size=    4096KiB time=00:00:04.00 bitrate=8388.7kbits/s speed=0.0119x elapsed=0:05:35.57    \nframe=  203 fps=0.6 q=39.5 size=    4096KiB time=00:00:04.02 bitrate=8347.0kbits/s speed=0.012x elapsed=0:05:36.09    \nframe=  203 fps=0.6 q=39.5 size=    4096KiB time=00:00:04.02 bitrate=8347.0kbits/s speed=0.0119x elapsed=0:05:36.61    \nframe=  203 fps=0.6 q=39.5 size=    4096KiB time=00:00:04.02 bitrate=8347.0kbits/s speed=0.0119x elapsed=0:05:37.14    \nframe=  204 fps=0.6 q=39.6 size=    4096KiB time=00:00:04.04 bitrate=8305.6kbits/s speed=0.012x elapsed=0:05:37.68    \nframe=  204 fps=0.6 q=39.6 size=    4096KiB time=00:00:04.04 bitrate=8305.6kbits/s speed=0.0119x elapsed=0:05:38.20    \nframe=  205 fps=0.6 q=32.4 size=    4096KiB time=00:00:04.06 bitrate=8264.7kbits/s speed=0.012x elapsed=0:05:38.75    \nframe=  205 fps=0.6 q=32.4 size=    4096KiB time=00:00:04.06 bitrate=8264.7kbits/s speed=0.012x elapsed=0:05:39.27    \nframe=  206 fps=0.6 q=37.1 size=    4096KiB time=00:00:04.08 bitrate=8224.2kbits/s speed=0.012x elapsed=0:05:39.79    \nframe=  206 fps=0.6 q=37.1 size=    4096KiB time=00:00:04.08 bitrate=8224.2kbits/s speed=0.012x elapsed=0:05:40.31    \nframe=  206 fps=0.6 q=37.1 size=    4096KiB time=00:00:04.08 bitrate=8224.2kbits/s speed=0.012x elapsed=0:05:40.83    \nframe=  208 fps=0.6 q=39.6 size=    4096KiB time=00:00:04.12 bitrate=8144.4kbits/s speed=0.0121x elapsed=0:05:41.36    \nframe=  208 fps=0.6 q=39.6 size=    4096KiB time=00:00:04.12 bitrate=8144.4kbits/s speed=0.0121x elapsed=0:05:41.88    \nframe=  209 fps=0.6 q=32.4 size=    4096KiB time=00:00:04.14 bitrate=8105.0kbits/s speed=0.0121x elapsed=0:05:42.39    \nframe=  210 fps=0.6 q=37.0 size=    4096KiB time=00:00:04.16 bitrate=8066.1kbits/s speed=0.0121x elapsed=0:05:42.94    \nframe=  210 fps=0.6 q=37.0 size=    4096KiB time=00:00:04.16 bitrate=8066.1kbits/s speed=0.0121x elapsed=0:05:43.49    \nframe=  210 fps=0.6 q=37.0 size=    4096KiB time=00:00:04.16 bitrate=8066.1kbits/s speed=0.0121x elapsed=0:05:44.00    \nframe=  211 fps=0.6 q=39.5 size=    4096KiB time=00:00:04.18 bitrate=8027.5kbits/s speed=0.0121x elapsed=0:05:44.58    \nframe=  211 fps=0.6 q=39.5 size=    4096KiB time=00:00:04.18 bitrate=8027.5kbits/s speed=0.0121x elapsed=0:05:45.12    \nframe=  212 fps=0.6 q=39.5 size=    4096KiB time=00:00:04.20 bitrate=7989.2kbits/s speed=0.0122x elapsed=0:05:45.63    \nframe=  212 fps=0.6 q=39.5 size=    4096KiB time=00:00:04.20 bitrate=7989.2kbits/s speed=0.0121x elapsed=0:05:46.16    \nframe=  212 fps=0.6 q=39.5 size=    4096KiB time=00:00:04.20 bitrate=7989.2kbits/s speed=0.0121x elapsed=0:05:46.69    \nframe=  213 fps=0.6 q=32.4 size=    4096KiB time=00:00:04.22 bitrate=7951.4kbits/s speed=0.0122x elapsed=0:05:47.23    \nframe=  214 fps=0.6 q=37.1 size=    4352KiB time=00:00:04.24 bitrate=8408.5kbits/s speed=0.0122x elapsed=0:05:47.76    \nframe=  215 fps=0.6 q=39.7 size=    4352KiB time=00:00:04.26 bitrate=8369.0kbits/s speed=0.0122x elapsed=0:05:48.28    \nframe=  215 fps=0.6 q=39.7 size=    4352KiB time=00:00:04.26 bitrate=8369.0kbits/s speed=0.0122x elapsed=0:05:48.82    \nframe=  215 fps=0.6 q=39.7 size=    4352KiB time=00:00:04.26 bitrate=8369.0kbits/s speed=0.0122x elapsed=0:05:49.35    \nframe=  215 fps=0.6 q=39.7 size=    4352KiB time=00:00:04.26 bitrate=8369.0kbits/s speed=0.0122x elapsed=0:05:49.89    \nframe=  216 fps=0.6 q=39.5 size=    4352KiB time=00:00:04.28 bitrate=8329.9kbits/s speed=0.0122x elapsed=0:05:50.40    \nframe=  217 fps=0.6 q=32.5 size=    4352KiB time=00:00:04.30 bitrate=8291.1kbits/s speed=0.0123x elapsed=0:05:50.93    \nframe=  217 fps=0.6 q=32.5 size=    4352KiB time=00:00:04.30 bitrate=8291.1kbits/s speed=0.0122x elapsed=0:05:51.46    \nframe=  218 fps=0.6 q=36.9 size=    4352KiB time=00:00:04.32 bitrate=8252.8kbits/s speed=0.0123x elapsed=0:05:51.98    \nframe=  218 fps=0.6 q=36.9 size=    4352KiB time=00:00:04.32 bitrate=8252.8kbits/s speed=0.0123x elapsed=0:05:52.50    \nframe=  218 fps=0.6 q=36.9 size=    4352KiB time=00:00:04.32 bitrate=8252.8kbits/s speed=0.0122x elapsed=0:05:53.01    \nframe=  218 fps=0.6 q=36.9 size=    4352KiB time=00:00:04.32 bitrate=8252.8kbits/s speed=0.0122x elapsed=0:05:53.53    \nframe=  219 fps=0.6 q=39.5 size=    4352KiB time=00:00:04.34 bitrate=8214.7kbits/s speed=0.0123x elapsed=0:05:54.06    \nframe=  219 fps=0.6 q=39.5 size=    4352KiB time=00:00:04.34 bitrate=8214.7kbits/s speed=0.0122x elapsed=0:05:54.59    \nframe=  219 fps=0.6 q=39.5 size=    4352KiB time=00:00:04.34 bitrate=8214.7kbits/s speed=0.0122x elapsed=0:05:55.12    \nframe=  219 fps=0.6 q=39.5 size=    4352KiB time=00:00:04.34 bitrate=8214.7kbits/s speed=0.0122x elapsed=0:05:55.63    \nframe=  221 fps=0.6 q=32.5 size=    4352KiB time=00:00:04.38 bitrate=8139.7kbits/s speed=0.0123x elapsed=0:05:56.15    \nframe=  222 fps=0.6 q=37.0 size=    4352KiB time=00:00:04.40 bitrate=8102.7kbits/s speed=0.0123x elapsed=0:05:56.71    \nframe=  223 fps=0.6 q=39.5 size=    4352KiB time=00:00:04.42 bitrate=8066.0kbits/s speed=0.0124x elapsed=0:05:57.22    \nframe=  223 fps=0.6 q=39.5 size=    4352KiB time=00:00:04.42 bitrate=8066.0kbits/s speed=0.0124x elapsed=0:05:57.75    \nframe=  224 fps=0.6 q=39.5 size=    4352KiB time=00:00:04.44 bitrate=8029.7kbits/s speed=0.0124x elapsed=0:05:58.27    \nframe=  224 fps=0.6 q=39.5 size=    4352KiB time=00:00:04.44 bitrate=8029.7kbits/s speed=0.0124x elapsed=0:05:58.80    \nframe=  224 fps=0.6 q=39.5 size=    4352KiB time=00:00:04.44 bitrate=8029.7kbits/s speed=0.0124x elapsed=0:05:59.34    \nframe=  225 fps=0.6 q=32.6 size=    4352KiB time=00:00:04.46 bitrate=7993.7kbits/s speed=0.0124x elapsed=0:05:59.85    \nframe=  226 fps=0.6 q=37.0 size=    4352KiB time=00:00:04.48 bitrate=7958.0kbits/s speed=0.0124x elapsed=0:06:00.39    \nframe=  226 fps=0.6 q=37.0 size=    4352KiB time=00:00:04.48 bitrate=7958.0kbits/s speed=0.0124x elapsed=0:06:00.94    \nframe=  226 fps=0.6 q=37.0 size=    4352KiB time=00:00:04.48 bitrate=7958.0kbits/s speed=0.0124x elapsed=0:06:01.48    \nframe=  226 fps=0.6 q=37.0 size=    4352KiB time=00:00:04.48 bitrate=7958.0kbits/s speed=0.0124x elapsed=0:06:02.01    \nframe=  227 fps=0.6 q=39.6 size=    4352KiB time=00:00:04.50 bitrate=7922.7kbits/s speed=0.0124x elapsed=0:06:02.56    \nframe=  228 fps=0.6 q=39.5 size=    4608KiB time=00:00:04.52 bitrate=8351.6kbits/s speed=0.0124x elapsed=0:06:03.08    \nframe=  228 fps=0.6 q=39.5 size=    4608KiB time=00:00:04.52 bitrate=8351.6kbits/s speed=0.0124x elapsed=0:06:03.60    \nframe=  228 fps=0.6 q=39.5 size=    4608KiB time=00:00:04.52 bitrate=8351.6kbits/s speed=0.0124x elapsed=0:06:04.14    \nframe=  229 fps=0.6 q=32.7 size=    4608KiB time=00:00:04.54 bitrate=8314.8kbits/s speed=0.0125x elapsed=0:06:04.65    \nframe=  229 fps=0.6 q=32.7 size=    4608KiB time=00:00:04.54 bitrate=8314.8kbits/s speed=0.0124x elapsed=0:06:05.18    \nframe=  230 fps=0.6 q=36.9 size=    4608KiB time=00:00:04.56 bitrate=8278.3kbits/s speed=0.0125x elapsed=0:06:05.72    \nframe=  230 fps=0.6 q=36.9 size=    4608KiB time=00:00:04.56 bitrate=8278.3kbits/s speed=0.0125x elapsed=0:06:06.24    \nframe=  231 fps=0.6 q=39.6 size=    4608KiB time=00:00:04.58 bitrate=8242.2kbits/s speed=0.0125x elapsed=0:06:06.79    \nframe=  231 fps=0.6 q=39.6 size=    4608KiB time=00:00:04.58 bitrate=8242.2kbits/s speed=0.0125x elapsed=0:06:07.29    \nframe=  232 fps=0.6 q=39.6 size=    4608KiB time=00:00:04.60 bitrate=8206.3kbits/s speed=0.0125x elapsed=0:06:07.81    \nframe=  232 fps=0.6 q=39.6 size=    4608KiB time=00:00:04.60 bitrate=8206.3kbits/s speed=0.0125x elapsed=0:06:08.32    \nframe=  233 fps=0.6 q=32.8 size=    4608KiB time=00:00:04.62 bitrate=8170.8kbits/s speed=0.0125x elapsed=0:06:08.84    \nframe=  234 fps=0.6 q=37.0 size=    4608KiB time=00:00:04.64 bitrate=8135.6kbits/s speed=0.0126x elapsed=0:06:09.37    \nframe=  234 fps=0.6 q=37.0 size=    4608KiB time=00:00:04.64 bitrate=8135.6kbits/s speed=0.0125x elapsed=0:06:09.89    \nframe=  235 fps=0.6 q=39.6 size=    4608KiB time=00:00:04.66 bitrate=8100.7kbits/s speed=0.0126x elapsed=0:06:10.41    \nframe=  236 fps=0.6 q=39.7 size=    4608KiB time=00:00:04.68 bitrate=8066.0kbits/s speed=0.0126x elapsed=0:06:10.94    \nframe=  236 fps=0.6 q=39.7 size=    4608KiB time=00:00:04.68 bitrate=8066.0kbits/s speed=0.0126x elapsed=0:06:11.48    \nframe=  237 fps=0.6 q=32.9 size=    4608KiB time=00:00:04.70 bitrate=8031.7kbits/s speed=0.0126x elapsed=0:06:12.01    \nframe=  238 fps=0.6 q=37.0 size=    4608KiB time=00:00:04.72 bitrate=7997.7kbits/s speed=0.0127x elapsed=0:06:12.53    \nframe=  239 fps=0.6 q=39.4 size=    4608KiB time=00:00:04.74 bitrate=7963.9kbits/s speed=0.0127x elapsed=0:06:13.05    \nframe=  239 fps=0.6 q=39.4 size=    4608KiB time=00:00:04.74 bitrate=7963.9kbits/s speed=0.0127x elapsed=0:06:13.57    \nframe=  240 fps=0.6 q=39.7 size=    4608KiB time=00:00:04.76 bitrate=7930.5kbits/s speed=0.0127x elapsed=0:06:14.08    \nframe=  240 fps=0.6 q=39.7 size=    4608KiB time=00:00:04.76 bitrate=7930.5kbits/s speed=0.0127x elapsed=0:06:14.60    \nframe=  240 fps=0.6 q=39.7 size=    4608KiB time=00:00:04.76 bitrate=7930.5kbits/s speed=0.0127x elapsed=0:06:15.11    \nframe=  241 fps=0.6 q=33.6 size=    4608KiB time=00:00:04.78 bitrate=7897.3kbits/s speed=0.0127x elapsed=0:06:15.64    \nframe=  242 fps=0.6 q=38.1 size=    4864KiB time=00:00:04.80 bitrate=8301.3kbits/s speed=0.0128x elapsed=0:06:16.17    \nframe=  243 fps=0.6 q=39.4 size=    4864KiB time=00:00:04.82 bitrate=8266.9kbits/s speed=0.0128x elapsed=0:06:16.68    \nframe=  244 fps=0.6 q=39.5 size=    4864KiB time=00:00:04.84 bitrate=8232.7kbits/s speed=0.0128x elapsed=0:06:17.20    \nframe=  244 fps=0.6 q=39.5 size=    4864KiB time=00:00:04.84 bitrate=8232.7kbits/s speed=0.0128x elapsed=0:06:17.72    \nframe=  245 fps=0.6 q=39.5 size=    4864KiB time=00:00:04.86 bitrate=8198.8kbits/s speed=0.0128x elapsed=0:06:18.23    \nframe=  247 fps=0.7 q=38.0 size=    4864KiB time=00:00:04.90 bitrate=8131.9kbits/s speed=0.0129x elapsed=0:06:18.75    \nframe=  248 fps=0.7 q=39.5 size=    4864KiB time=00:00:04.92 bitrate=8098.8kbits/s speed=0.013x elapsed=0:06:19.27    \nframe=  249 fps=0.7 q=39.4 size=    4864KiB time=00:00:04.94 bitrate=8066.0kbits/s speed=0.013x elapsed=0:06:19.78    \n[mp4 @ 00000220a7a2aa40] Starting second pass: moving the moov atom to the beginning of the file\n[out#0/mp4 @ 00000220a7ab7d80] video:4982KiB audio:0KiB subtitle:0KiB other streams:0KiB global headers:2KiB muxing overhead: 0.129604%\nframe=  250 fps=0.7 q=39.5 Lsize=    4989KiB time=00:00:04.96 bitrate=8239.2kbits/s speed=0.0131x elapsed=0:06:20.00    \nx265 [info]: frame I:      1, Avg QP:31.98  kb/s: 38273.60\nx265 [info]: frame P:     60, Avg QP:32.67  kb/s: 22761.01\nx265 [info]: frame B:    189, Avg QP:37.72  kb/s: 3366.93 \nx265 [info]: Weighted P-Frames: Y:0.0% UV:0.0%\n\nencoded 250 frames in 379.36s (0.66 fps), 8161.14 kb/s, Avg QP:36.49\n",
  "seconds": 380.50368905067444,
  "probe_out": {}
}